<mxfile host="65bd71144e">
    <diagram id="U2bmtuHMHIgCCc4C5-Ao" name="Page-1">
        <mxGraphModel dx="235" dy="554" grid="1" gridSize="10" guides="1" tooltips="1" connect="1" arrows="1" fold="1" page="1" pageScale="1" pageWidth="850" pageHeight="1100" math="0" shadow="0">
            <root>
                <mxCell id="0"/>
                <mxCell id="1" parent="0"/>
                <mxCell id="2" value="" style="edgeStyle=orthogonalEdgeStyle;rounded=0;orthogonalLoop=1;jettySize=auto;html=1;" edge="1" parent="1" source="3" target="5">
                    <mxGeometry relative="1" as="geometry"/>
                </mxCell>
                <mxCell id="3" value="" style="aspect=fixed;sketch=0;html=1;dashed=0;whitespace=wrap;verticalLabelPosition=bottom;verticalAlign=top;fillColor=#2875E2;strokeColor=#ffffff;points=[[0.005,0.63,0],[0.1,0.2,0],[0.9,0.2,0],[0.5,0,0],[0.995,0.63,0],[0.72,0.99,0],[0.5,1,0],[0.28,0.99,0]];shape=mxgraph.kubernetes.icon2;kubernetesLabel=1;prIcon=api" vertex="1" parent="1">
                    <mxGeometry x="20" y="440" width="72.92" height="70" as="geometry"/>
                </mxCell>
                <mxCell id="4" value="" style="edgeStyle=orthogonalEdgeStyle;rounded=0;orthogonalLoop=1;jettySize=auto;html=1;" edge="1" parent="1" source="5" target="7">
                    <mxGeometry relative="1" as="geometry"/>
                </mxCell>
                <mxCell id="5" value="" style="shape=image;verticalLabelPosition=bottom;labelBackgroundColor=default;verticalAlign=top;aspect=fixed;imageAspect=0;image=data:image/png,iVBORw0KGgoAAAANSUhEUgAAAOEAAADhCAIAAACx0UUtAAAAAXNSR0IArs4c6QAAAERlWElmTU0AKgAAAAgAAYdpAAQAAAABAAAAGgAAAAAAA6ABAAMAAAABAAEAAKACAAQAAAABAAAA4aADAAQAAAABAAAA4QAAAAAYn8bHAABAAElEQVR4Aey9B5xlV3kneMLNL1Wu6txqZYGyQSZIgAWSbANesLHXNuPxODAeHGbmt7bX7Mwwnt9617PjgD32b5zwGgxezDhgm2AMiCAhwAqgLCFa3Wq1OlV3Vb188zn7/+7rKrq77mlUotRVr/sdlV7fd94NJ3z3O9/5wv/jWms21EWlmnHNrZyzXLM8Z5IzKZmNI8EZE0mcKs1d31LL3RSMqSyRXDGhmVZMpSzN6ErLZrbLuMO4HSkWUrV6rMmTJOn3o06712r1Ou0ujlGzL/GUUlmW4XhQcIwaxnIhhGVZtm07joNPHKPmisDC1yBwavWgMVap1fyg4qLm+hnONXOYsnnGWPGnUzSQpZJxwYTFpEOfaCt6wxh+yxKWK1X1qHt5mgmmuGXRycsF7clzagbuz3lx2fJPw/gvH3oaZUprDioUmCvMZDEJoBYQRgrq1bljY4KZzhKVp9J1kyR2XF8zgcnuJyxmzAVNMvbQYdbsJIePHHvmuaPPHjl2bKHZ6YZxmntOyujmFudScHwKzDqOc69Kt9UadInPlQKyGZBFcdrJD5zp9EM6h6gLr1IK8salqO9EWbXiT09N7Jyb2rlty/a56dnJsWrFecksA/OQjNmMoQM4wOuUx6FAbz2PaRHHSaZ0UPFxF5yZxzGIEgWPxCdOR4nj2HXdwfHwfg49jQ5WARBZlsYgF0fS9IClHW8nczPjOE4T8LoYc0nMCTQiLDCrVsIOt9g3Di187amDX3vs6X2HDqvadiIocGFLCmmD6RH/45aIjtDs6sGs4/Pk9Kuog+oBDQ4og66mkuP/AeGufKJGWBX68ZRC/BPviV0l2s0zcD6dp3iRcMCVumTMvuSibTe89LKrL5rd3mANl1XBWHGF6lEbcCBcJgQehr8kp18HhS5fJlPceLlVpzx42A6HnkYTTWxGYKYUJgv8cUBDHCwOFBRHmeN7tD6CGmIWJuyuB59+cu++Bx9/+kizz4Nxd2xWW16MS+OulNK1bGlxsOY0jWnFTFNZHcOcEhkRyxz8S7RVlcQFVwp+WD7GvU6WUypZNxvQc/EaEDOWg++OatGdNU1EDiIsisK7lHFHaqkimXTqtr5sx+x3XHvllZdefMPuCp6E5Z7olF6CzLGkpLV++akg2STBzSFmfLNqmI+Gn0bBWTIsnn3PsQoeR4thpoSddyBZascPGXvyqL7r/ie++ODjzx6a71s1sD3LcmwXk+soDqar0jSdDECaKgcny1Iid53zYi2OvInT5/ckLTrCGtDTGZ8DPrpMj0Q4OMZnVtwNbaO70edJxjzOTuDFQp3iJLHgWBWSZaYdUCBEgoJsc5XhfYmxPmyr6Nu+6zV3vOa6HePMg6CC5uhYdZq6OoWWoGso9LgsWzmmJw5zOR9oFOyCq1SlCaY0lz5zaDVHZS9mX3lk/0c//88P7T0WOg1ZnUy0zGXFsaULLpYnKg511seUWpInkvZAJC5q7EK4lNwGX4XkoPOCCumThEhszIhl4iPAvA/o73QCOMlHi6uIoIvz8SJFg/NBOisUjIMM0mlRVqgT/B8VVdVDjZY2s1zFIRRLPDhTrGrr9sIx3T1xxfaJN93ysttfde10lUncoyB+omql0O6yhg2eM3yfQ0+jYcY8LHQ606BRyJqWA3nteJd96M6nvvrgw0/ve9auVOuTczmXcQah0AKZgdSwmpOwKbnAN+yNwUvdCua1ICDaQQ8mG59WHoGvFT+RHCHkQJrQcQ91RBf0z3Ip5p9oFHSJawdkOvj0nKA4oHdAqQSftMJrHfM6zocuYsD2cKcBEafN4zb2O66fK0Z6hCyT0BPY3vziUr3iTtYDkfQWjhwIRP6G177qzd/zmkudTq1Ww62wJuDRg60SDnC3olVD/DH0NAqWid0Cz2gdlF4FG5mPfOahv/y7f9zXeEXguzbXedIXWezZXEDhFIc+SERzkvykw6WjhcSGA/uMim5h+46ZJI0UUSXdFSJnlFMlaJlk2mLPUlQzT31zvwxSO4UEyuXRXFeLC8El0WQ8H3fDAeNJQeikk8CDIXpofOI4r26hNycJIXhIljtC2xLkxnUwFkVRHEagP0icIEF87ff7735d5aabbrrsssvo2jwHK8UBfvKgBBjyMjw0qsI0Su2gDhJotXvj9QqYHQmOAuuvtRRBI+N8/onW773/o4dDObFtD2vNl04N7UzKyul09s0zTFzIdL6CtrWsFEtx2Q+GOlM7C2VAyTWH2CRfOvCOO677pbe93FVh3m7K6jizPNL+Ckly8EDtoDUIukJaDlPPSm6+sVXDQ6Ok2eZQCkK7iQWx1+thoDtLi7Uxr5O7kWX/2vu+8LHP33/Jldd1W00B9sm+yedOHWLT3JtozjSTpvM3ikbjLN8yO3l0/5NTPv/ld/zIq18y62VQ/iZMgkxp7cDKAG3aqUMxLMfDQ6PFahiFoee5Osu47fS63Uq1CiHzkcPdn/v193aCnbXpHU8/8fBV2yadtN0WpBxdXc5XGt3idL9+aMmbuUhbfnf+wL+87YZf+qFXgqEybqkkEQ69sZCF8Qnt73DJqUNDo1ih+51OrepDc0iUWhtv9mK/4n70oeO//74PJf5MX9QTJafq1eaRZ2bHgl5WzjPOVxr1wiONrZfsW0rbmb11eiw79tSNW53/+M63b68Xyn2s+MVaD8kZmgSQaWHrWP0Kb8aaoaHRBCt9pmyZp72OXakv9TJZ9T79pad+5o8/d+O1L+0szvdazbGxCTDYRNm9jDUE6XpWl/OVRm1HRjHcDrD7d1WeZWG7aovJ8dp7/s0bt035eF/DTqtaJVuXxiYT0tLqodmsNSZxa9O1F6sUbJNYtuxKBeuXVfXu+Xr3jz/yublLb9x76EQSRjumGqy3lPXablDJDMLopuvV+jXoeE/l3Gq43IkWsqVDkulQVh453P+tP/ubhw6GeF/9WmPwNNhgh4hA0eahoVG0FSr2QtsnFtr9YyH7gw9/4mDk+3l7y3h9Ymbrib5O7bp0vNbRgxdNlm+Y1o8kNt2dKlJVXKuLEqWNyRmvUs3iaKpR+dR9T/3lJ75wsEXWYLzbkJPI1asQ7jddHwwNGhoajaFCWW5stR785u/9xTPznbEdl1utZ/POiePNTlaZSf0pJv3Zutt95iFDf8/b6irvh0vzXrVRndk5383CKJmqe050Ymr35Z++56t/87HPhqR1HSzyGvaOIRqIoZFHoZyvQf2U8siy/vT+Y3/wsS/6sq6Od91G+d7Idryw2xyvV7vtJow0lltJuNMJ02kra3dgIk8wm7Zb7WVOzKquP8Z6h1gWT43Xw04bMqtwfMsN5o8v1QKndDo3Ssdk0nkJcqkpKTmv5rZz5NDe3/7lH/2Ba9D7JhPVTmTVyJQ7HGVoaLTN8jo2pTEPPfmTv/t3jy0ynju1lOdknC8pFZEeW2pt2XHJsYVFyTIeteYq1q2vvmnXjh2NRgCnykNHDt/74KOPPnmg2WfCrrKgOjk+dmD/Ps+1YVSMwgROcjY8TfNynfyw0KjgTixd2xVO95mPvOffNuDeBROa7Q+RlFfOhErmfKOrSIPCBVzqH9/fe+SRb1hbL7cFGfzKuQdj7aX5S/Zc8cSBI1jito55v/KzP3GRH18242L3ALGh3+tdddXsG6/f2lfs03c//unP3nPP4Y7Uea1Wh3E8THJYzeGkAl/98jdgo0fj+T+/YmWdbt/xZg4c7//+X9z5K2+/VSbw44fkNDSee0PDR0ErWQx3Tvs33vfJf/jqM2x8RyOoJq1FXrjZr54zCK9h1FdR//WvvuFf/+C1k4yNw/weNrsxrzbgewE9gYLpBXZUiGadPvsPH7zn7i/du+vylyx1Izi4S9gcswSupFDmrL45aoaFjwaq21VOSzm1StB+9tHPfuBXt3AtshbzyC92KMryNmTTN9Yi5ZMNf7W7H3x8cmaXzKGIgrskGU5KS9dqQAlwy0u2vPuHrr2Eq3Ed9VtLuV2tjtXgmAEfZgWH5xw+HOSSErjs3e941e2vuKZ99Dm4xMPcSnRKTm7DpaUpGYkojn3PrthWs9XzJne9/yP3Krx55e9dyeWboWpoaJRchSQ71NFLMVx5fcndsNf3SDldXvrdxSt2TPznn7nD7iywbIHl/aAxHltOp9cHfXI7EH6NCSeGE2mSw+NuirFf+slbZ+tweWvBFQ4P84IzozvKn7S5a52xiU6n0whsmzPXr3/kk1+A0zfThfFpc7d8pXXDQ6OIn2PsmaPHrepYv69t5uis8HBb6crpBzv10e975VVQk3q1OtMOs/wTzQ5k06BShRgLa6qCT55GwJ3wHAlKj57bO2uxH37jrS7PYaaBk7PteggxOv2uw/ctc+uIeuFxf+t4tdVsdmK992gGp9shKsNEo52IHVta0rYDJ164WbqODf9I01i/pNG/7YYt/YgtxSyzG1HujI814JGGXRYkBA+0acEWA44CB784S7uNmZrutm69acdYLWg0amClYRjSOUNejjU7kzOzLI/aC/MTY42Jqdk77/qSdodpiRgaGs2deMpmlSYckhV88YReshHyCU96nVGkPDxJEYoEouMSPu6tXv+tb3wjmGiNRWOuDa5B8RM6l+FiEUViUwQ+yA9/XEjhegjOdGatagMxGW975eXtZx6uuQ7i7XsUfoI3ouQPgmrpn4mkoXMt/cPerPQPetDSAj1o6Z/puePaQqhhS0xYtXGvd6DPrL/+2gLiD0znb8L6YWrrmoZv59Y5KN89BMQjmg3bLSIoSGRGGynRuWaezXbs3F7xXcel8NAiRnhNj92kJw/IHZtIOJMgmATatyEq5y2NTk/UyVEfZmqdLm+s0FlzfwuYEFDytrlZmj94aOSJK3CH4S4gShAolgN0Y0CjAIZYWiJwgGEp5jkblh6Y2qlylUAUTQBRgiUd/aQITL5Mrquvgud+SuwFaA8xFLFxDDJ1h14cPemFBxoFpYJGUSBqN5vN1QOwaWvOWxpdCuFK6g38UPKsCGyjSQCjNJRB/Dtji62+kg5geFAQAmw4e2iqwUdR0FzQKD5xjFA+hDQNTQfOtvYNUSfKmrrvaAtgHcwOALgALgI91bdQyCOOwnKxu3rqwBG3Ns4tT1guTPZl9x6yOvBOkOYKjaL1INMh6sN5y0c/c+9j0EsBm4wcohFWr2jnRNsiU4HAxkUrZPc/9DjQdRCrhuBmRTv/4S6gzmKFB3wLSaWDr/gcol6dtzR6970PHg9ZN4FftMUFoSt+i1nhFtzTAZ336JNP9WIYSmk+cfG3uGoYfgZFDohyhZUOou+Hoe3UxqGZA4rCgSqIwDYBrQlQGewCsBUHwgxLAYBTcAjscgB/aLG85juZ0/izv/qCwq4Hm6FwUUZLWLab2kY8L6lLT/JT/Ktinfe16jjOccZ+64P/KKozU2MVO14MJG5XrgQ9CxcqVYKislQJikrQTWkpVYKanEQxkaU3QWUqlqJYKpFyt5dlPuFBWu0sHSaD/dDQ6Fpf+iVW/dKThz/ztWMnEjsRvuV7qrs4xlMnzTgMSHCXVjHUUr3WYh5HLheg3X/47FNPPn2w2e1FUUK4NPApIbXqqGzwCJy3NOpN7TzQYf/Pn/3dl/f3Ihcuvb4NBX1nnstIutAxhVl3KQ/Dan3KBQJPyP72rkN/9Ym7UyuojE1HSQwRNgz7YMwbPD+jxw/RWr/WyeouHJloNMa27vm//ujD/+W9n3kuZaGosfqWxRY8S4ACGahgMg/Gepx9dX/4/n+4B4Fp+0906rM73EoN8M0AdgRWGbDE1/rc0fnrPgJmnfa6P+rc3nBnBfpR+eyB58bGxh4+3HvLL/zuW29/zS03XXf5li2w2UMcDTnb+3R81z8/dN/DTx4+tpTVJmtT2zth3O1HdoFfCzB5EnDPbbNHT1s9AuctjeqwrVPn0t3b9h44zKxpe+qiD9750Ps/9dWqasH7hLBFbRfu9pGynEqjfvE13fYiZNB2uy11FgRBGkdaZdVqFd5Pq0dtVHMuR+C8pdFjWNqrzqFnDk5PT9uOfeDI8YnpuRRAyekknNKB+Bgj/4EQdb8S5vrQ8WM1yZJ+zwfGjIN8HXkMXHpyozpv5fVzSWTf5rPOWxpNq3MRHKGDDJDiUa85XffSFGCclX7mL3ZDuPPV/IrtiCRLQZLjExU3Qmxaqxr48ElFmEhjfAJ5O8J4xYj6bY7z6PIXPgJDQ6OkBIK2EkCa8I2AUpQ0nHRgYnTjLKRcRq7f7cNdH87NzIZFPux4KsX+HgXozYOwZDIlJUBKYj5AT6CGdT3UDLynz6J5gsqT7rKqQOVZWqCqLK0/i8qz9HzTfWh0ygqiChH0dfIPe+SBu2rZmZu2zjTFm7bBo4ZdcCMwotELbsqHrsMjGh26KbvgGjyi0QtuyoeuwyMaHbopu+AaPKLRC27Kh67DIxoduim74Bo8NPrRRFmJZKFtebmO4ozXxxc7vTxykPm1dNJUEZ9U8tNZdJ4lZ5urDHA0VZHGVpBbQbe5OAm1bNJHPsWEu3a+NpvqWvWgUBuXthUp0eEfg+R+RVZJiuOGK3f5qaXXb4LKoaFRRzDEwdmqH7Aw7WZCqmqOgE+dR+WQxMj1Zhjecl234WRztYEmoEvvRk17bLbiIYdznsD/GvFU6/VimJtzHv8yNDQqmUKU5zV7tmS33tRJmedWkScMOZJN+QeMfAh5GNelLLvyn3EzIEB/4u4HmmlXWHYC9L08sRxXABdknV6NMx53IXwdGhplWeRY3vWXzl2xZw6RIsjNDitfGjNnk6XDbGv26GNPNA8uaUoQmlO8n2VFZGodlRc4AsNDowiag6Rnu0g/T0FGBVvybWTzNvTcuBavD7louKKUlYpwos4SXPuCoA72WQRhATAKub3Lzy+7x6jutBEYHhrVwMRFsB3la8uB5ww6BQGAEJ21dmF9VBlnif5FAKDrB0CgSKKepVOpObImnw1+4rQZGX05cwTWOsFnXn/OvisJ/HugjJFTp3TR7AIvDH5Khj2qWR5dL8GwnC/mnHnVMVfxSHFKO4dE4wqZvclVa1Re2AgMDY3CpwyrOpbOLE0tSKMIQUYVVlMjWyynofUK4TKJGNAyIDY/zmUKb2nXr7oO0nbFUSiGCvLzhRHTi3TVmmm0lTIAx3qCPNRBBWBX5JHIgfgF30SFpNxFslTwKkiKGZw0tfCIjs4gJVxkgqQz6B1XtKAWQLOLpG2WkToHY2X4eZ3YqFW0YfWsCOE4OlSLCxNze5pp1stcrWUGVrr61KLGyO8NigCTHtR0n7P5j2IoeBNJWDNZ8RC7zT7L2B7mbjO01FAdY/4J4oWg4CEAYXkr8Arh4UuQhQB+ZTZmAhsHSUQRA7CIeoZXHAsLfgAagohzFjusbngATlljaSAfErfaYRqmCjCdNYSm6xi0KOUgKRVWNoJkwOaGWmMx6nvRnpXnEH8zq5FNcp5B1bNy1+d7YLq/6XrT1gtcsvQS9Ncbm650gU/Bkxj4vYg9EbVKNcbEbKZCAjJRiW1BHIE/uOUvHrtzPPpawp8obabp3eiwRS4C25qxrO2utUM4O7ickaLK8lkrAC8DorudIcmV6ApwK+VmIgFoDAO8OwYEDQByMANCTLEPLn0wkfFaS9xibhUosohZR+m02zWEWAYWMJWJNwobekHo1mFUWewiT9eJfccBj5EBTxCwl/jEMbFerZ0io/rqhyM3/epK1OCS8nrD/hrvSen5tHtZSzE9F3mOS2+T+9PPzLcz6UN6djxlAaQ3T/Eel568gZUYTmIWjN40wZosg0r3i/2+qMhqeasMTGLSAh1A9t6vxTcy5M/i+Mshgwf1W3j3bcy7DrxLOj2AYufMhbErZR0QJUaFY8HVlsptDqgNCHFmSjT/Ut5SRF9Q+l4eY8cK0C7XRU4/jl4JyGHg38fa7MEnDtxz/0OP7X22E+W25ynpEUkWhYajwHDDJxnnygpmtKzaTKPFSK++BMGfqytRs1ZqQcNL74NM5eX1wl9sdyqNCSfTto0QPoT3AR8dklA5TZff5MWvBZ4z43aRYAS0YjMe1ewo8NLcwDtM48ZjmnmByYfZD1oXQMHrhGY72scq/zuXl7Dej7HsJmS5yu2BeNSACIioRihlAOYHMC7ipoYxHgzDmmn0QFtsa4BX4n04wVJb1+aWgIe4wO6+56H7H3zk0a8/re3KxNZd1tQVgFBoR5QEERSJUGEUHADoa/BgZaBRCRz6smKklbKTUWeiUchnayqm52bZQIo582boZG3MR7KHKEIEv4KQhteL4Pc3WeGsw8QYAWhhQPI6U7YnxpnIY10O8WyiUU82wQ4h4DDtMo28ZNiq4Biy6RE8IQrvUdUvyeR2x36HdPcEFYBruZAViUg5mOeykdjAaAZjtmYaHWsIvCxCW6I+l3P70Xn14c8//MkvPzreqKSZP3npjdLx+5meX8KHgJpwbMIpYNsgz2jY0LHWo+AAyehLZ43j5S4rZ1EylZ1OqKPl9aW15krTc7lV3k4XMKeEQ5sISiZBYGQn9xNrfDfMLVqvX7CrQTSiQAMBDyiVG0V+ECaBRBLA0mKgI6QeJf6YaJ4ovoBkwfhDjZ1sA2Khl12UNrPU+0y/fqenb5f9H+VjV+LuNPlgoOBZJHIgCVHGuTFVwZpptIr9umBdae89wT78j1/6xy9+tZPJmS3bOylIkAHem4eJtJ2Jig2JMMs6US8f0ChaRgfY4gn84bVET0qKwN3LiomfcYOcJLGWlRXDSJedWtSZaLRIZlJyVdRt04rBdNWhlzOGjlSAbWBCNhmRwv0hQ3A36FSkVmjDLiIiRmiW5fNCNFVWwmwJCLzYsaOz6LYgUnNRkei+o8chZdqyY6fIkF3V9kO5d7cUv8GCKebOMlaBaxp2H6AF66xkeNYfy9ok1UK3637wnn1//rknDnT41u3X7bazzvxB5tZqFV+rvNNcyqNmpRIgf1KexxCeQawDDjpApikIld7csttjKtdGo/QmlhXkvy2rLjazpT8YKk3vBrhQ6RV+4CIqGj22IYkWa4eEtkzaBM6/qUpeQQ/QwIxnOe8xN5FBCJkk1uVJw8mwV1aQZw3VECxpE0aefwVFQdMEeE19TKaLPAXlTghQP/lWTpzof2Z86nLp3cDYdq5sXCXOkqSgeKKRRhdyNglqybu0H7ICTHi40JpqWJ9Uk3/+4S888vDeenX24obMWi3SJYg61rU4pIxe0FvjExNCwjQLdLRMK9wi4WyllJMWdXfllFMPgKR56teVY2SfXTk+/aBcN6Rpa1dSDI+FtFbeHpN6l3RMEFek3S/aKywH7lkaYp6Rj5bTuknXY75PSadQBcVP1yY7MrADelDqch3EGumtEjtzcivmkqZW+hgUt4UDaNTKx9m0Xq2sDyenYfAPsl/RltJmYpaUoFSAjE02mKn2Pcz+CEt+gdXfzgNmYZaw4tGmbXBayaeRRkGgYRTbdgD9mUNMmfPJxl99/pHf+czXup24EjSwaQ3DuMjAZYk0z7Rhn1vy0FHVBTwClX7a3pPb7/OSBuNv5tXjOWuA/xoJ8Wz60bzte/UIAm3GXJZy7fzlnV//s89+o9vNG/Vp369CQQ1drGWrNOvHSSiRxGNURiPwLUdAwn7dzrutHvttPwePe5v204ghh1b5HhT3Kxf+6EG0MCtcBwVrV7sf++r+//b+jx7PKjNTuyxZWVxoAmIOMiVUMHHSO0v+42/Z5tEJF9QIpKm2Kv1Ksjtv3RdF/5XFJ2QKQylESmMx0qiWldb8MalIvvrsU51f/IOPj198XdVW7VYPKbZA3DC0wFyQpEiQHmLdNz5h9MNoBE4dAdib0t3MXaqkl4hehyW/C5tkjRmMW8WFRjFgKWQTM1uiXu/hE9nP/99/HOy6VjpVOz2C8DFgd8EYARg6mPhc14UuNqJk06duiE5t1Oh4NALfHAFbTuh+kxDf/d0ys7utz3jMtaz/yMrVCXShkY9OeAq4hvNe5Rd+4/2NuYsagWMzBJBhGwcU+V632+n1O0kSuY5frTZsuA+MymgEns8I5DCPH9bZZGFMVrzv5NHfsvmPneVSI42yvHmsw37uv3286W6bmJysZu3FQ8/YlXHXg2pae55Tr1eh6ez1etg8jWj0LEM8+unUEVDZc1LMaDuKerAm76v4wlm6Luz821PPOeMYznNN5o5RSricVWHnj9rcDeJEL7oTv/nBT7WXTmwbm40zoHIHltcPm0fFYP8ObQE8A6HzhVsC090IIWYGPeIZD1z+ajofsT/Lp5z2r1l9dtppK1+GBR90vfSgKx0/4yAWKkjynpP1rNRvQ9WddezcgUMrziscPQeKSeJVxQR+Sz3oGfc3fjXYVuBfCz8pOKt5pAeahNqUywM+253Mv8nxPtp1GZw6XXaM9WZzZym1x3EW7JI2EprjdBtg20nEXTcCeLFrf/5r7WeOLsRK9OIkimLYisjYBT+/URmNwIswAqIjWHZfhVzHY6VnQadSjpMrH9Eo11kONSi9TggGx7/cC05E7K//6a7DzUg71ThjAOSG7b3wkCk3irwIbR7d8sIaAasNy+THQYQwqYIwY34CplqncOoANoH2PdjZYWGOA99f6HRhxvynrzyy72g7d2qWX5eWu6JaGpjaL6zBG/X23IxAzFXvHhZ/2WNOxlkqrcJxg+QP8FHynwePzBOQL/dqE8cS9vF7HsGR7dXIk58rhxzpaK2H3+i5afDoKRfcCMC9JJxPFv/OgoTKYsHGSOdERiT8K+BMhQgPxAPbaYIgHPbRTz/+jaNQKsFtK4ugZUWsEmIwc7jrWkX08AU3eqMOn4sRcOF5Y2Xt+1l0yGUt0GeiW0WYQBHLSbySYkxcuI81++zu+x5V7hTLQp32ZR67CE9J4zSNwUTz0Z7pXEzXhfiM3E6krMCCz9p/KxMPtiUCyYKzCA6wp4egSjt7zSqB98BX9y62Iqc6xfLEgR7UFvgjbMCcXJWRWfpCHL9Rn1/8EegjeMRyuayp/udYUodeEzEnAJ3Dky3H6nZV1SabaNiU/ns+//S8N7M13t+XFcir0KL1AamICFfkzsyw6JNXbGmDTUop0/kjPehgGE3jUzrIZ6s0+EYGOu0iRCxRDcdPqm6aCzfMRM11QAMO3HvJKRlR8TxUHZGPKWfFH/Rszzr1N4MeFLLkqWd989hAPw7C3/oLwr6mG3+mLh7l6Uu1jCyo34lYKbZWEXCDlvsOduHN5DkQX8sJ8ZtPGh0NyQggAgIu6MDuw0GSxrYl4ExpCibbwD4ByFfwKZZ2PcQSdx8iFZTC24M1nmjUchE/Cn7JnDu/8iBFw0EALeh3A1s8evR6jcCARhFiBeViFiNmgqVJXPWMAW7r9dy13kcCKolvZartOLVW69OgUQCcUEQD0WjOPAtB0iqU7M5/fgQ+TeCriJxf6zNG52/SERBWRnFVwKJEsBGiIhUCIycaZ/OF25COwPWZ5TUmYqa9JLyX9Y9SzCrtlQDxBXpF3JUUTx5hzzZTLAoAjqDKUTkvRgATCls34sWhA3ekSJOo6ruNagEys6k6iOSvMHO6gsWuo5dY+yt4o7Dgo42I9sB2KQfM2Ke+8pg1sbMXxsiPTe6go3J+jICQeU7IBugNhFGWxVtnpt1NyIIyKxcntLRUEgSskmB3r+EtQnNQhDfqDJuzu+572GrM4p1TGaCxDZuy82PaLqRewMiNPRP0hnDLwL/ANdi1Y8smJFGGEGf7CKEvsnE33arUvSxuF2z0JI3qVqt/4PB8Cico2477vRXEmwtpNs/PvqZIn16gGGG5h14JRDozNW1MDLSBY5ADPqITQ9EJULQMhtADLAF6GRXL0+2erN95oFurjNV7R3KtuFWtwtPEoH0a6UGX57F8qXmx/UGxeVhuwGn/gl+e9n35y/Ew2zEeh81Wx6rVGruig4/f9oorpUIgEZA3vY592GFbXcKPfdy1I9atALlk+dLT/10nPahJ/5pO5HZr1mZzmfMUAGu9zpWp/dtu44+wM4LuiQA9nnjyKc/1QZhQUkB2wefpDRx9G9YRaNTrCwsLExOTM1OTh57ZK1T80svmin0IABrwX5V2JYhuz44DHJSwdDaonK6SByeEFgKEWdhC4UsfZezBhx7zggqWAmTCGEgwG9TU0WPXeQR82wZeMZdy/uiRmYZ7w5UXF65rQPyUSH5nKVgdY5iE0nifyP2B6LfOLXiet4NDHgoneFqCgob6XoUsPYE6EKzdDdmhY8cB56A57QEth+DEnuedR6dt8hFAHsCxsYlmt5dnfVd3fvhN3wUlKeOk/071EpAuJWLbdRjH+znw0E2IQuegk+CYRHXA1wV54j2SggSSw3gy9KPWQisUtg/8Xaz0SZoCYRnQOOegVaNHnIsRyLM0wcSLudnxvHPs5mtnNODnB8hbPC5C1wVLDql0XhjQ4M5FI4mBgl0CtQ/2BgQfg0ahwe+y+Dk8HTTK9h446Ncaaa6gM1WQVwG2Z9oxnZv2jp6yfiNQd10gyXjV2rMH9r39B+6A7t4rYIIBoYmJpufkVRY/wVUkVGLyA1m/5hjvxEkXqhAnQiYxQu4FgG5XD/go2OsTX3+acJsAchrD24DMEqOYEONYDtsPlOnFtgAvV6/5b3/LrTIN4Wt5UqcjkIEVaHN2GD0JvSnn0Qqu8rnvJUkgVECG4KPg7zCNhmogj4KPPnf4CJT44KDIwOrYHmSTk2/Y4KrR5zCPQNQPMbXz8/Pv+MmfIBAkwL7CfQPIydQpOG0UG6bsiEXJG4CxWGxcNqS/hF0KPlpshAbNwL6eoEWZhf393cftqudN9A/1vdlUwFqaKl24QpW11SQGjPxBB6NlGp+ysTxr3Rr1oIAMR8xZnia+h5QvTrPdCuO0MT4euhBD56+bs3/oVbsAJqOSTNiwfwONu59n1VBnPn9cZJ+wetuVPcPnegQXvqZiEgtN9Yab2z64uA9dk5/VNaJEHIQtTfDOndBAWQlCnIqCa8liRvqnjXuZDB0YVX/LEYj78cz0JBASOp0OIs0dr6bgzRaruP0cj9q/9d9/HRNdxca9SBsC7Y3UNpzbfGVlS19x4+2cnRDWFPKwIv/Ht3zWOT1BxaLbCYGdX9AlcVrE0Z/TFowetk4jsGPrNgBuAhyuMTaVKStG4iHpRf24miy869+8fdZnQLwf8B4gG2Nf3+MOMUwdJq3P2+Gs4H0m0yyurFNz1u82WVu0Wj0OFHDwThIFsPNH3BIx0/V7yOhO52IEFo+f8BwCp28udbDsI9A37DTj7tKPfver3vLal3SOL9V9KHSw7aCkBEi1iqQnpAztfln2nyXFpGwwdZzFm89nL1kQS0hHh0Q2pIYAH8XeabSpPxckte7P6Pf78E8nr3vJtkxNpO0FL+3+1Nu+52d/7C0sjOcmkfkNAWnIuGdVkFoDeQZZxOKFZOnvXMQwyRPM3h5n8xbCMzZZ0cm81WqCjyLvAQz0kETxRgH4fo1S8ybr1YXZnOnpycXmous6rmM9t//xKZ//0Jtv/6HvvUlqxPRCUVNYQDmpRgEwB0dSqduse2/W/WdHbmHiMJMzKgHUQm+zjR5Pl6xeF2BPlPaK1nqAppH7FuKfBh7Qm63Bo/YYR6DZaWKv7np+2F2su+wdP/LG73vN9XYehf2oUqsT8KFlAcQD10P/7SPdcGcpD//JhxgqekD/TvSSY21n6XFSSG2qkrZEARwOEkXBO0Y0uqlaOGrM8xwB17ORYe/As/uuuPzi9/7hu7/7NdfraFGInr9MoMhaig1HmOS+76bY5AOBJn2AO0j32sr4eI/NS7mDIUhjsxUVW59vWnWrDdx8Xd2e93oVmOy1pfPIFHa32fSgVm0q6neRoct1JBy0kYOHMKoQrRstFSmyYP7lxQ6QtoR4EbtgIeWl0B6X/FQuouXwyikryHNdVs1c5L4oK6nBSj6TAeKQ9CzoDqIiwDvQK9yg4qEOmBwSKiKFZMZcwviCn5L9977mput+4KfvePW1l7mwcCOPoGz0MxFobUkgIZFKCVwogN6RPeE0d7GFd0l2chdv550JNs3YYWbPlLWxqFs2BJ15wlqZmsEPFZ0q7rycZQ+skqxNFkuPWPgNM4efVzjoysGZrdmU37PW0brnM18AAL3dQkIpSk4OgUVZ5LlLy0PhS4NuYj+B+u3ZYnk/oEAuLaKcFpFluPR0bDtL6yNDMl2HchWXlK47jonAPhyfkL6wqR2UQ72+ByBDhMmH3ai/gPCfWiWo16rves9/3TJe2TGJVxAUDZ4JByGHdsLweZNAxH2OJdsBMcsylzW3LyY/OlHyzE1ZpSLo8IlyMZU0FsvEOjjYlE0+s1E+i/tLTYD8IFv8WC2QwkYoAfoSQf+HVxz/YaYVasBEKJ/gIt9y5i0G323DdkEhl3BJUXazpBbSnFdOu3KQ927VNUteuc48As4BlIKAQUDTVaLSRGUJOuJN71YppMxF0W/PVcTLrrry9Td/543X7MZjwXbI5Q4EWvA2ECjIHwkQscIztd1zTvB8ArmQM/XuvH8vY1evasumrMhaJ2kUrUP/8YlxwcEQ0SgsfrZf9W0PkTC9OM3zvmNJr8gnO+gUaNOS0FwgtoC4EesbaDGDdqasCKQoLCk6Lz8fTrolZzPWlOX8spIQXa0umQAgZ44Egkg7ir05HEGko0C2+5760sW7tr/ilS+96bqXXL1ndroGxGNSykRRQpnXsStCh4HmJWSUqhgygR/yuFaBi302xcJn4/DXsuhL03JICBRroGpbURSBIlGwFA4OVhjq6oHbhDUA8vWqdSSmWup0BZNjY2MiT3rtJcdBWhRiqDrPwIHSDNh/xIfiOjL+lhW5v6wW22ADXIKcLz2fWHdZ8SnRVUlZMEC67oLOqIgpr/nu7OTYzq1z27dMo3evveFS3AURnrRwFz7qEGHCJAmIfw9EYXzSAcDkkDYrY1XbVZRYttvV8e+n4T853UuYixes/N2jm26mIvPwTD6K5g0XjQa1sYV2tx/nnucLkTUX5qs8marYS4efmhyf2LN75yUX7774ol3bZmcnxoTrsi2SEu+WlNyQS9Jwvjacf1re3lMe0z/l+NTDoJx0WW8A7Q6CzxkcfJzlvMeS5GmEyCH7NiHNadtF3gzXd4FziEWQ7gwmSge0wQLZwnuEiSMsDlX3v6f9+6rRaxk/FLcWXEDPD0MBcu5Jb1Fw0AFprhysdbu2Uf1N+y1sCSYqfqXixm1IW0sv3Tn9ndddefst/xruE1jjbHDXgrHA1Qsu6QxOk6VFlu+NmC7fS8HiXXobbFhK6020qAfa9VXXiFARZgw44TItYRFA/LGEzInUG8REByk0KDk6SHJFD0M0WdwNm0T4Qdn8EXYc+/f/wJPH3O7VDM3Ox3P7G4w28kNQIHoSnBpJacPGPldGV2ZhDYm4w2auuq972dU/+IZ/ddkMxd+SYEa9wh8UMdhGUByCBQUUrIClxUCLpedSpS53vwBsUWkZhJSt/glI76XF9wv5FY0vcImhXYI0bTtOjzlEkQVdQtsObYGGegqeQFjRNYODKCbTRUQdfoIMLix1ZGGx9yt2/2DDm2aVJmuKREbB5Bzrl+/VShuzoZUK0hBNIzCf4PsEjkN2Uawg3EIKh9KWGaag9FyqXK88SUvt/pa56TzuR/1etVoN4eMqnBip4XuLO6fr3/1dV7/l1u+cCNC6NI9T6QaksMY3OM5qLHfQIyJ3dF/xdk0TtjotgxSQUIR5kemCIeCstBhIqHgBSi8wVBLjKysmNzOs4idPL1qwMuwVjgQcgszWtIxjlyQ1otOk22bPuXzcdSou9DQQLLp7s/6n4vT+SnxwCv2Vu07mpa+CD3tnI9BzpAc9cyyg4zUUAD0hoL5Y17HKG07aFNXTU+OtFon5W7ZsX1o4Lmgn1NNR701vuPm1N1133UUVT7Ow2/QDX7pw/8klbNAZlIAVevNkG5D+DpvQeZBLvHsgDEhvYCQAX0MQFziWcvPJF7efJqdHw7DDz6e0PVleX12PU6f1dnotU2Qq+kqe3qmiB/O4KRBUV36b1ffYvDWQeawsSU7ukwpt4kAk3WxNBppft9u9/IqrHn300Z2zk1MN98Cj9//Gf/4/Lts9PlUl/QtOsAidmOaETDLpDrI882PENfU4g0cPMZ1ulNbBA4EJjBPB2wDTBg4LYs1EudxpkssNpGUctqJdJb+a7gMNUmkZkC6xE443De8b/ugdY0cQVnG/1l9I4qdYmFmZayMCGGEWm8+VqbRf5kptIXEyAphAo5BKYUhEwdmDT/NlG/ALzEhbZmcOHTq0ZW4mas9DMvnHv/iNOgQvQMEleRJ3nWpQ6GN4muYcRlHil67QszTZmFKQLiIPVT2w24WTl0WrOySAHDtiso5a5SRK9L4+xcTPDPfHvr60VLCO46cMsefPpMk3onh/lh7OVGdcPEBLBSBmEOiDE/D+6SmmoGPaW3qfYanUHDj3DtljUCCSk+2tsDbR5ybrBDQsaRzWHEtk3Zmp4I9/7SeB14/QK3gUIiM0sylWp5g9BOtgI6h78pBk0zavUZDZ4BdYBPOYR8eY7jN9QmeHlTqcZ4eUWkCNt7BsKT694xiK0ytOfjPVl56MSm2weQ5MJ6uvqsTlzz1af1hqWHsrFq+6ul7TNcaBL+LqTHBVYbzB4BhA9tuu0s9iGqUy6DFWP3Jz1gg4abkuhhtFEo0SI8VanysFl9JNVTphNFkLVNR009Yf//a7QJJpt+9UQJ4rc4ltEBZ5bKw54FQr2R4sr+gKvCfzuJsnz2TiPiUft9v7qF+wjgIJgcJh4W0BEgbPJW66ukAnt7oSNWseniKL7OpbARl2dSVqlF20atVvc9HN1E20HhcCqgMpgMm7RXHntcw+xuyjtAiqioJ4Yze1WGD94aZRjmTKKBiHAWniEwXjT59rnoRVw7muFZZbyZJ4jMd/8Qfvgu8O5JJKFYSKAu9y6A0zz8f2aNBoml0JZRMAOaJjOr1PqbuUeoynsUwdixL2AdgaOnGHuQXiuoBRXMYxZIOSUgzIGupLTi2qAFVb/pNhw+8afFNYVPB7EmMhU9vQxOD1ojtb96u8omEVE11tH5Kw/7JtLHsJvJzKnzsstaJK+/rBNAz29TjenBt87Nb7zYX3/ua/h9zoSBApFk9gU0lyc0KuSIdidKAsHFBpFoVW/LdM7VfpI3n8HILIPVir9S4mYN4+QnwIM4tPUrgTQ8L/bpF8umTiTvqMrfqFXua1lKxcloDSofwuJpqugdaLpN4FM8XCBxc+TJoHXZpYBO6MymwejpPl3mpzAYPtcPNRpG2wbqgkX+G6YjeCpJV47UxNVGKfexE3yE/lA0ozXs4nTPtTE3/qwOHWyRFuiyHv6qA6taW5uDBVD9hj0bt+9bu3106wHDn4KKeQBTETdIK1zk7bqo09H/x1RW6zpfus6K9ZeghNxeZBsLlCo41vsCIuki4UZUBgy6sFLSUmWkF8UFkhIaG0DO6/+ie7fFPGCcGwrJj24/E324MXDbIOvW/4gw6t+EYKBFI2QlJHpZlADfNFr+6aiqG/JjkbCekMt8dzoc22TjaAfHPwVqvcmhAO7TiKy+h9JDaESBHDXc5FNaXnIR9ebTseePzRw4dmp8aPHtz31rdee8XFs+SqBlgiTBPICp5EYCgcm3O7Juwaq4luI+/+g5Z/Qlv4UTkvRsCyqla9GoAmwO3oE84LYC1kcCpniueg1xIvCrRgeBJy6GINl6nqLe6YrPzAmy+bDFK8ZSBKLTIuYC53aMNDuaS6MquzeH+efDDtPY2YAju4n4ez56C1o0e86CPgTlhjY1XiTCjwr4HNkNTfkM+gH94YVpTEUeBZMO4l4OYQ+2fGTzz98L//6bfP1ULkQMlVBe6hUFzD0Rx2aSwPcLpg/SDvf4zpD1nxESvzEDqY9yeMYEAv+qCOHrCuI4C1fmK8zuFFSxAl0NsUnhgc8FAbx0cB8IPcJsCTdlzs1sPmwiVbxt908x4oljjiHOBWTvKSrbMKGC6lkMx6afbhKPmjHEqlsApdKNAPVFTuPL+ugze62bkYASUnxVijglAfiKGQoQeuQpS5kfjoxhQE68DtGoK4BGxvmh55dt//+ubbyOUdumhUnmTugkCHQaxiIVv6S5b9lat6DgzWtsPSnSzeI/1HNqb1o6eu+wjY06Ja84k8sa4SWB6kQVAqrZbr/qzneUPsgmD64hYQ0CMIpru2z732psvhjE12Z0jLQE7lHRAsbW7zVh59mcd/Lhe3W3qS1Q8zPcHgcmEfk8LgPP88GzE6bdOMgHAnBDy4SSdaeJMsN4xW040qSdiv1wE+7DabTRDra25+dUCaoZxUNHA/V51EHyfFCjh/fKzdflBGe4T1DZhbdLiHuQdZ7X6KPEsu26j2j567ziNgB1bFY5fpfmp122N1luRW3ucuEqQ4hWdtyePWSw8qDLZBG8jsS33tjgW+kkv7/+Vr3+bGCXZGsGpip99nkc93k+snIiX6vzje85lMkAWV1BHIPRBDHYg/+Is2jXo+k/7P8GKuWQ9K7kglxaQnLjl1UGVqp0Efab6PYUk03d90I8Nz16wHNT3XYlFfOt6EsPayzhgcYrj3tVzskZBH0aSZ6Sk4DkHlhOfB5kL7FdhtNqjAzEUBEtjGcXXRjm21aoHph8YAoYj3AnuaXOlAT/lnpZoihjoq58cIYOIHmw3S55BNAvAWXNLel5T2l+zZjYBtqPSxwce6jwJBcKM6DtMmALMoFXQW3njNlVVAtpNJmpw9U71oIxAZsmhyopt9gERP8p4clfNiBMjTDkvQstKTp0p6wtuFvpGl78pL9yBH6CCwaUCdINON6jd0TkpngN/I+62XXX0FyaLkv0QZ+ZAShSMIF/678T1Jdi9LEOuDjo3KeTECMMbANEPuE5hrIKgmOaIj/SvRN6LR3bt2Ym3VeQp3IKyzINANzLuM7NCATuEqdVV8+e469kLFDAiyeAqYjk5A2oyizzjkmAZP0A3j9+cFXWymTii4rQ/idogf5QKxBD7zlml0dtKtelA3EjwJ+Cjs9gho26jmI90VxGKZx9um6nW4zmW0mmMdyBHUAdtCivx8X9fJk162nbEl+mFUzosRgJMIlwUfxSzTconkEuCjl6Nz4Kqq6rPxsTqMhyCOQdnAXiNoDGZ6wBtddelFWOgBMYbGQIzOsZPHixOP5/GHPeZY6RbS5WYGQIcN7MDo0S9oBAa+9TTV0IGDFFmWS4AjIP0uvLiUgsW7VqvByQgESvv6DcV7QhpI2terDNgiZJEFYC8Sr4OVYgEA08zHe+mnbTHDMmidkPdstK9/QRSx+S4iZzsC4QSNkluTgiMshwcRNdSCxyUL0+/5jl2/99dfSqq7pDftx4uV/vEwKImRxQUmPZ9pm2XSg5pGybPSatJ42GHfuWVCyjBlnkVO8/AmtAt/wg/V1WSeHk6s1M+3CQtg/gaxxFhf/mSTHtTY3/LbGMdnze1cq7i12fxBTeNvGDdZaed6ItHP+fxG1lpya2F14qfhoIG1lAyfVd+/4uKLo14bcBdJHLo+0oSXg3AY7r+e1eDiA3InbkqmJZI4QUC0AOBQ9YnNw24PEQCevGsciPVs6Ohe6zsC3Fd532YIlzjGZKwQMSEvA29FQew5qU4v2tloBHZgY2GlPQqHc8YGlYG8gd0bzKGDJoAOUUkrPWg0XcR+XnByfyanApMz/AY1fvTYFz4CiG7NlaXhPrSU2fPCvZzZV2jyzQCNAhIo1y5nL7/mSri+ubboR2E32TA5D+SIAhpFJpdBh0Gj4KxwHoXXXpYf1YiEROA8KU0JUXtUzpcRgERXY3nEuNuzDtiVO4gpEUA8aBRhWkkKofTml1/XOXHIs4C+rrqmALRzMh6gUTxnhY/iGCRbODotajUPYxi6UTQEkXckCYzKeTECsVATLFtg1kSMVbz6RjAlMYjQQog2kvr4kr3kou152IEDEVJJM7Fha/2KoQtaJzDQwehjZac3Si0haI6QxHSBCQA+iq3fqJwXI5DmfSjuKSKS9y3/JhbMahsoxxQzeDJMD3x0eoxBJZkl/QzK/I2TR0GjWNlpcYejNWLvIC+DV+J/6KF0j0FAAbVCx5/DAJUiNvS8mKBRJ+B8CYRKpBiYTfST48FPgYGmcGSjdR7SKHbPiBKN+sCqfvkN12Luw7BfxIduzMCBRrGyg0ZBllj0V1gp9A9MIxlr4USCrMG0o4fOlPowKufBCFB8Ur7A+LYwP8HdN1EMM/4riqVFGMXcrgZQlL/upkv+6u8/PDF7dVcFTJdjFhTEUTIma9WDmu5DIeHWvE5mc95yrRpxepAnVE8Ak+XIeAnF/SVM73esOgemMWBkTFRq2E6tWQ9qUG/B37pkFFBlON9Yv8n0oOWdWllwV/9s6u/qMwc1IMaThbgOHRYbo0C9jHn3Mv14dfwWVm/Au9gRAfniQvBMtPJc7JTIzW3PbHDFJRchZrjVLSfQ5buP/h2NwHqPAD/M0nrqPyVtLPQpoDwyirKjAkRgmw4VC1gCZc8bbnkVgjS0Zca3KC4bfYxGYJ1HIJvH+pnbV7GxtwIyQbEexL0Bn4Xyxup221A9AvaDp53XvuJKnYVV/yTgI1bkM8o6t2x0u9EIDEYg6bD6US94N6tZ2HMgkN6mrJkkUBX7ppOewprnSU2wW19+bb50cDR0oxE4lyOgecS8V7PpNxaJVkLOYHYCzscC0Wia9sg6D1zqTFheFXrRH3/LLRPpsTPY58rXc9nu0bMunBFIKxPM+iVW6eUKWJsLDiJ/4Y5ZJAcEgmVh9oTnsxXAtyjPoovH2NtuJv/nURmNwDkbAd14A6u+GlpxSKEWq5Pem5L0USIN4dpOkmRQkOcWa4exI7iVpz/+ljecs8aNHjQaASJE+zY23u9HvuDPsqgOV7eMPZNjxS8gEqtOYfgE5TrLbhxew/7xWy7+k7+/S05f3m63GzKcG68dXOyLxjY3AgTDGgqEBMPZZJRfXbChEww4sIucwdEFqLc9gWxdhJsCbagid6coA0hunmfAxyX0NEO4yJr1oIYw6BVt3plNNfXLVD8kelDCLy8tpn6VnoxKQ39bE83qoiN7c4Qm5z9+nB0L8jdVGtvsHbfiogrxz50DC6jFdhOG0mDPVByc+fHWO15x5Y7ZbvPYxMSEVx3rZwoOnc4Ije7McRp9X9sIVNpeFtcpKY9/CEynEd/gzbXYxH86y11MVho267F/9f23eWnLg1jAreeOt4JqlSUwoY7KaARe+AhYXduW9QRmTWAipQ1nMpXyT7Op8qCPwWOMNMrD5i3Xbn3r629aOLI/TOJgbCLJ0mxEoy98dkZXFiPAc+GHgD4Ow0k19hzz3sOm5lpGiYouMdIocm7ILPt3P/qaabtfs3UQBMj/bhHQ+qiMRuCFj0DoYwtxGBlNnbGusv+CbdudubGdYL9hLEYaRaYKZMWxovCP/s//rX9sbxZ1ej1KJmu80+iH0Qg8jxFQstrvu7r2mHT+1Nr+hp5Vxy65jvS85mKk0TaXSH8eOOklE+JX3vkvmscOzs5Od6NRPLt5LEe/PI8RCPpb3NmODt7HdlyT+zAd+Q4DSt7ZFnsjjUKzHyJdlQY6SPe2l+/5pX/3c3v37iXcpVEZjcC3MQJcfFHK94o939sPKplOHdjmY4SmnS2ewvgbQPWED/dNHwqCmmY/fEOt9s63/M4f/tmJbddbuRiTvpcD2Q4x0V1lxZkObWu2iC4SgN6jFIf0ZpBjYMXAxsmrpawgAhCZ6yRQfVQqGBIwEH4vUibDnxlAPzlgTOAGk4aWDTYPPMoc2ZbLbmOMczfpa8tbg1ub9ILGegq5LismdmBygzS0yFBt0kdmBn2nYVrgxWFop2G+GBKWIsJMw5MuSQAkhqwfZmAY+wAAF9hJREFUFocPepJ4vmhXEDcBd+V8C1MTkd3qW0cnrj00GBxKUoi+nAz+LRuw5bryCV7+tfgX/vBZbNnu615xebX68+/67Q9NzG1JhT4RJ8LhDB+pPd2Y6BGaiIYbf468x2kKX3qgMEOlmg6ycZ52R/piopU8S+G8DMQxcsIHdZqmZNUNN0mFFkiMXFIwbyW15OVbTqOm8Sm9CSpP+rGt+lkADrO0GCRAbZdvX0w8Jdf7cXtk+6BQXthZ4J9EERTA4kwYcuymfqaWEv9h0djlBe/0rJ8ubcvZK400ii5omPcxsAVLk8xtSPba67a995d/9n/8fx+8e9/+ys49zKukXddOvMXjCa8B4Rk8VDmWXav6YH5R1I97iJ8CMy4phpGjfHMIF0FINfpcctmmr4IJr7QgSqu0vryW3uHS042VpsRvgqawrBjun8G0V1YokUdZiVggObw+bBuxEoiMSLHKUYJLZi2AtXedJK9PWrWfsIIfyavbud8VbM3bbiONoj2IEbYBEKFzwlwKO0g8pzP2sqv8X3/XT/+/f//Jv/7cl3q84gTT2qtPb7+o3TmeZnEaJzFINYbRknPkdOZ2XKA1re6diU/4LnLPCwsPpcAmcnLFbJmSH6++7YbXSCQ8KS2GtZIwjtalGGyPRC6lpZwU4VVUTosmNaWKVMFUMFlgogRlTGl2MWeqAR4qKi9zqz9lj1+d+7A1J2HojJ9ETShtU3mlkUbRUsCRagJ3xgMFEs5Bl4qYEgi4EzX2i2+/4xWXXfG+v/nE/nY79qz7n36gxitAbfAghEAITuK0n3ChYV73Te+lgVEg3w0DDi4iBQgdjUaGaLS88ZuyVhhUHyZGZySitfbOQHRwaVhTMZ5fzo89B/4fWDsgsXQilqYyyWQGfM6JmZ+xre+x69cwbxHeIYpNe3nFM5Lb2ZpovggZD8EL4SeFbDMSUXqF/CJ4V3VrAiop/l3X777l+nd+5ItPfuiuuxFykjTjrNfr9wTgoirVOnI8pkkexpEpFs8woqwfxyoWCU+QQMzK8+WETGfrw6b6LaFA25JiysKqsaUoK2sVdeDUVnYb2LENwkfp2fArIh+4smKAI+5GdwoZcHu35V3tVW70qtex4FLmTLO8woJYs0Mpm+JsQqgOk22mzmbzLHsq1ZUPEH7QeQzHvSK4XYA8Af6cZbllyQZSHwHNBhMB8D0tv+91V9zxuise2nv0k3c9fODZ5/btP9hqhqzaCOpjcKgGpSm7/P0zrfWVSgVAeZ5Gsl2HvJwGkhkl4aPmbv6iGm8tbaQpLZtpL0I7j7WU3LDWm/y/TPdODHCZSKVReklt4k9oiYfyCCcA1Va4wNzUWPddlStkKtxGiCIE1lWDt13M9nrsktL7nKXSSKO2DS6WRomyPI9Qy0CkNpJxk8MKs+yMRYmFLNVwjxNOJl+9e+76S+ainJ1Y1M8cPb7v4NFnjxw/vtTphFGP4E1LiolGbZBmnzXSrhcEeHXxRNAn1FlIzVhyl81X5c2909AoAz8zyDxrpVGT7mnN96FJLi3lTCJaVm2uvFJYcdEnR/VBHkhKPFA5IA0xEDuYWDOBoilGGsWbgRW+svr3guQsiKaFlx/1pjgHYJBw/puc5pdPz7CrZ0p7udZKdFuyqqQY1aqJpo34oIa5X7e4eLxApP9doTyIQ0jZAxm8fI7xjhu6X8RBrPqtfOVeddpKBVSSK8enHojQIx2kCKHOIwxX2tHkcd4NJLm4f/ulJID4ZEdJAbpSIDQa9pIrpxgPVtOg8dTRD89nBDQsD2XFvHSXrw9r3e6bEFuSXNkEO4MswJIUg6TBtNwcK3JZKzdl3YhG13laoCosL+Xstfxc1K4bImCwRDIic2nZxXaoWJKxQg5RGarGDsO4JiwsbSY2gqX1FFpWVtZI0mW3KOoinikQKLFNKGpIww76xw4UmxrjNZvshxGNrvOEiCJMbPVNy6XF1ect15goevn35/uvxWbpVkihik8ovCkEzAKe5/As9WfZMz3fQRidd9oIWFk5Hx3Awpx26skv5fKr+fyye6DOIJAGUL1Av45VHkRqNZGiw2LVQQij4UabrnrER9d5StTRD5TekXK4lZfy+vXioxrrewKVNpSEiEVbCEXN9l9hVV/GNiwrR/konKV2RKNnGZwX8pNuv7/0MngrltYXYdklvxhUSSVnDqrIhlxWuLMosrpQMJP3+1kzEbvdcc0q04ztLjt9M9YND40C6Q9Zy+FdCqRcOBchdR+siApTaZgb02gb9Kakdy4tJtrC8klXrMh1+EJedhJqndJiun/pyag0Prf8AttgK1H9qiBgYRlZY4H0ggQadpVVtwzPxBsVy+UDMaodjcC5HwGDwH7uGzJ64mgEDCMwolHDwIyqN80IjGh000zFqCGGERjRqGFgRtWbZgRGNLpppmLUEMMIjGjUMDCj6k0zAkOjJiP0CWhIoZOEz3Ph9kyIv5RtzDCWph8M9Ub/VMPtEahQ/ovh/uUnUy2Ul1D0wve0cC6BmZInpNh3fBZmKfzGLcuGu7fNQ5X0k3CSojnGM1XRvG+LI7ZaZEhZGPusbtDLmh88LL8MDY0Oy4CuvZ1wjsb7B4/pwdtGxgkKPkgWhPTtoEYJfEG3eRTIXoCUG6lju0dsu8fyJIt5omqOM8Z8WDuPrv3Rw3HFiEY3ep7IPgSJayB0IUsvHPvxqQTixih2O2RZm6UJ4mTJeQm0aj0hidECFXbGSrbGudt1O8x+uhoPjwF+jUM+otE1Dti6n44l/pscdMBEi2fkW1W+ELN57TZlXds2uKmjMjvLbkyznowQO2sha6otI8W7GZIWD5GTyBrHcESjaxywF+t04p0Fp8QDsPrDXP9oJmeY80oruN6uvIw7VzDuwznZsg+x6Lms+0Ae3q3TxwB44POtTF/C2DMvVtM2+r4jGt3oGSBfTrBP0Gghj2IjSBH3IvXmnNr1TuP1LHillrWYIFu6ijVdtV3626zxl7Hoatb+OGs9wHoxy5rnsSfwiEY3nEYhXII6B/Gl4KD4c/Hpbnk7C/Yw94qMVfFbmpMTs80trZe0GKdEW87NbPxaxv4hzT6SpQ/4bPtG9+TFev6IRl+skX2+9z3JR4v4JeKkAA8Cmdos+EGwRnj7ZQw8NPMAZRBWWVpltUWVtTt5DUh1vlN3pm63+dFEzLOwYMPP96nDdN7Q0CgCcTiy8fKUnEfBUrTIM+BJWdzkZ7lGPeXJfcvquVsvPaihnbnewuTnZHQD9J5QQh1NHpi76A8Zkr4V4ej4cCg4rgg1PhmwXgOQYVVTnLyg4Dk3mf3+bOy7nn3iTTvFOAu3q+BYyHyvOSHd/ZlVLzDPMBbQ/9IH/QvQzML1dXVfN2fNENmZBgoaUOd6hVFsihmBA7JQ1WJ9x7sHVJiLmb3VFJw0aDHIDGhQRcA+xsQWPLBlLfAuZdwj6wYUVIAOFhTBJAwAOJui58+7EUNEo9g1nEGgxfr4vLu6SU/kba6mmAoQX6Ct1K/exNzLGKAaDCVXKWgUCwnRKC3vLhA9HWuyUX0F0FwY4hQgLohEYBOmgLe4diRFw3M3sHp4aJTmo7DHkLp7hZUOPZlyHjI9UZhDs0ymQfByZs1E5l06IC9Jw1/QMFmFgdMKxCM+ZldfVQiyKde2QPwM4DGVDXiSDaSt9Xr0UNEo8VHSy6xX5zfHfcD5ANKd5QqydsKxZBMMsrGPgKJF2uFByyFe0tqOtxcj416hSDmAYC+XsPIgruKVXmvk3uYYkTNaYRyLM87bHF8xN4MVf9BsAnjeHA37NlpBBAeSamIvj3WcCSTLAIWuLBRn3tmS7kloUtKYnrKM8ImYtZmFTBoBYU4V0kBmAE0586ab+/vw0OiAWxCDGZ42P4+5BwoiEzGTiwBdJVs9kBEHmCKGawnSm0YACS0GHlIJsV3YqHKd8EVAb+o8UCnQQElizVnPcJthqh6u+TZyl2Ea8tPbqrmjsUDLDtAPkSSDcLuzUBa7odNPXP62vHJoWtlBnciQQAcKaYF0jxZ3DXRaoOORxGpKWrJ8r+H4d2hoFMPOgisSdzaHsjCzWTwtVT3Ojw10fiWfpvGHcrD0j5IMlf6dVCue+QjT/Ynfl/0Zzudxl+VIcbSTOft8ZDbo3Q/nkCYpS5/NWJIDPAB/tFkn/Wqcsh7PADufYa+Uu1ZWsfoVRdr7TOx912T6epbt0OKIL+08XVQI9YcxX85mXo87HZ+Ns/QEE9d12HN2XAIbamjgxlcPDY1yUqbYFefVkfU4YxOMLzG7LfULwVff+FE/pQXczkiXmSFX2wR0pbr/IOt+HelhJNsJ2GNp97RoZlkzi0JQpivBJOfh+yRySruUO928tiQDSxMMSY8c+chjmrZRhQIVUH3gqx2hAzJUATxee4k+4DpzZnH3lJZtmsOhoVEaffik+9+b2vMEzmkhB8Cipcc3zUi+0IZgS07ptmDvHIfZKO48kC192YE1jUBP8H8fCTMse8yyKtzGjuqAlY1TBisbqf6ihINSA86isPcsU0tMd5AVC6t/QaCwRtHOKWdLQtfzNGA58J4qPfaEG1zyTXSVF9rqc3ndENFosdm1L5PutX37GWYVjGH49086qQHnJkfGLVJZ1ETSyltfY537kK5C6SBjtYx5SJlUZMnzlZpgkAe4HbHjOYCElGslLms/nhz/HaU7ioFGQdZqQKMDMtK6zXSgcZUCo62kcpFVLhvR6IvyjmkoEV2kOmEV58cj9yizx5EQlUEBPuQljxqUDdWZB4UxPeawSRkfZkt/D1KjbDbai7Xo6nZbhz0krkrrzYQtJVAEBC4LHBBkp8uOfrbe/JjSEEtTbPCx8QcLLSgekjSyf0JtSntNBUECSRScHczdSjx6eMrw8FHyg+iRosZ/s3D2kMAG+2HeHp6hLm8pcgDDWwbvXm5DlMTBuIUslp0vdI/9J9X8FLK4VFKBgDpHIAFgarmZ01AVh9VBzUggGD3M5v8HW/ic6GJ9p0xzMCxRSi2kjlAcCVfzPBMq0Ar53GKB1LJY9YM3wHxaDuNW3sCNrz1psdj4hnzLFmA7jnxQANG0q1X5Y2H4Ad+qsPAY84dbJBXuQh67SsxxK1JpU+gxold1XB/6QB58Q4wtsPrrHD7HEG3HTzDWDFiNaDpusugx1r4njx/WumPxGQgKoM7C+An7JxK3IlkD8l8nrjWW5T0J6cCyEMjneN+Pt5v0BMNThoZGsanAHCATFxR/lviBdvoe39nGWqkB2nt4ZsBb0OEOZTWEezThJxzgV0pfaFGJb2Dtp1vhu7PuLr/xOt+5mWc70rhuy4U0fKjf/QLPHnVl1xY+r1aT3LGz/kkCheGKMiSBj4JG4e8XKH3CkjH8VDQ8pZ2XM4Y8OMNUimygQ9Fg6Gegrxba1g6pDHuPpq33h+FH68nuXKRMTgi7nrEjcfJ1O0Oo+XVMPlferfXyB4WwWFpgRC8roJiyamSxLK0+pXL5huQACmnAcL6OKtwNmRvRHXObQZ8MAoWlidyjJ1LnsZYlPP8/Vbf8WOKzts6nCiX/KY/ZvIdDw0dJVOOgr5yQHyBFWzXh7bbYNUw8KLM9yPgchY87Lq86N0CrmEQHkMhx8476i9AyIlD4OkG6RYLuXCrA3mP7BHuoz+PokW42XZ39fm/mOyDQw25aEYgjLc/Z/iI07du95fDQaGGlxgzAng0FIfOmJbvBctzO4cdqVmL5iRX1GKIpoIvxhVWFxPbtDs2QXW/3SSIFgSrsmSSBuJAyS7CklThtx/1fvNrPsAA6hFDkgEAZpl3T8NAo1rhi4KFhybkrrYBVXupkW7Q9n4mvWHw/c+ssr+pkX2rZtjOD7cWQEdm311xsknjukT8/SJO0/dAvQRXCO92oNnUrm34L8xtQRGEQIZcyVRkizfLw6J6K8YXlZDCV2NpqXmP2bnfbz1vBbUkyS0gefshrmRCwu3S+vRkfvquznFItUrAeVnyB3HbHc4EMDYkcv4xVf5JVb8zdMCI7aQELlRWfQ9LL4eGjBJEAEZOSXxV+kwI7fRxJt8Ym/oXNx3rt/2lnRxw5Z5FT5SHG1idn65DMI/ZSsC4hRA8LPRxOwggbJznL5PbanjtYfAtTvmbPIZ8Y0toSdx0qB7LhoVFylcA+gCyiHB7rLAFP1bBh4z/Z4LPf7ztO1PyiCJcs3bRIGruwiiQUCfI9xSjBgsrsOa9ys+3dxGo3Mhs1MKbOYaGH0QnHFvB7hmd4hmatJ5UL/scfpgEOvqqb5608bcZIOyTaWvii8YPB9A9bgaeSedaG59CFVQD1SG585EfiSGvK919iT9zOxu9IkmntnbDgpBpZOoFeqgsFSTJUwvrw6EdNJIetfkqka2NJQCKi/Jn4xL2txadm0o8zVafNATgI3kQrz2VPWx0rnybFIUVXQlMDByofNnGKYrdbdBcUkiGKz8FX2+ASAI5eVox6UMP5ywpS8laGmwi86+FSjxs7+VUFeAlWDDQgKczxiYaAw7eoLM+yROcI/oTuXgsyf0rWA9qjXLIbevzqYOYWr/YapmbJw2T439bhp1HyQgcBFgE8RFVdlh5nyRI78T8zdTSLm3kEuIjYtVqCMmJPRflRS1Qsu8JIgdpR2dEwPZDknXHvdohwRCKUoCyFhQbHYNee1SgjRXD08tVyzTQKbzoUaNRJqY4YD0owj0U5zg7C2oQDDpsFGTmxH6K3UMTzHC13kEkZ7x48RmCVxx/FMFvV61jjNla7mdmzCjoo3tasZbMd5e0fntrzgEbBZixsBWjMwYzwCWEA+wLyVm+r/ONKf0CHj9vtMQcYyDphY3NMdTPVyin5LBK+jgk2xVgjt74OggAdaNgSAZ0A7ksACsKKj5XPJu3hSsqaaRTOo6BFMG/SaxYCN2HpcB10YFhCARALIYuQkwh9taxt5ErL24z3FcfiIBX3tLSt8XdZ9W2stoPxCXDPQgCNJUssNvxu4Oh2yUgPT5XKY0EcEd3gmbbABLH0gVIBwI3ps9gi60bkH5R9LA8fUyFHsBDntsU9SxQbB8hmpErMVNrDxhg8DOZWYl7Yj+ErpLtOAWqzekDWSqPGYYbRsvgNHxQPUnQF/w5ol0Ln0AC8LWCi6KZk0TEolTK7Cad86V3hua9nzu3MupbV4MeASAV42y9C7yHhw6irFMRXvLyrmz9ENUPPR/MMTpEYcNrpw5UiVTKFSR+4c9ZXbHYNAnmJYCF6wnky/YaSD/AT71FKqAQZs8lZDU5scDOCspUJyH/gT6DXPqUoJs9UwM8iafFs6XRyg6HdzEfL+W6eOrgVJEtkGmXwmpfF9hxW+S624cC3AqoevEJhNINIAIrLmkHL4i+15W2ucyvzr2SVgAUhky2db4cki37gzYIZjnpNAkvEccKQl6GnUeKfmAPiaiBTBEnSjgNfnKjKvBZ9g+86ikhzZWcxfCdbLH6W9b8aRV9NsqcEX4BmxpIi74bk26YtoT1BIiDkP7LZaLFYOsVFDHHJL2ulUQbDOpUUCzdeCfiAkFjMlQt/UGYpYWss5cJXCB+VrkawzNSvwjsRRiNm+7QX5GnMeqlG6J3LaX+EbeJJaQdSOpMh40O/aRp6GgVh0lZiMDGgVmgAIaXBbg0KQ4wF6sEuadoh9WH3dNTLtrPCe4128dk8i/bF8dNJejxP/wj0yJUllbRyG2KCwOUkoRZ7mlXUKAxQSiYa5RTiWVI4cW6AhoOLuvCcy7SDqC0FCbX6sJTjln2RtK+yvau581Jm7WIyYB7c9QuJmfpNnUAXUWDgLPguQlsh4EKMBXt26AWmN3i4y9DTaE93PR5I0BP4J+YJf8X+uIiPSIloC1iZgr1iryuW8P2kcAdpFR5sVElXwaMfEDT5QZY+xdInWPL1PD+kdFMm5TAKCFopnfn/v7prV2EYhoGy/MAEkpCptD/W/4eOTR+QDiXC6l3+oNAO0eDBeJF9liVxkr/FqK+XoF3Ik5SDlCPHNEmsks50YlKSHKUWeCV46Rm+UyMKVCPNEEE92aKSyqYFlgDhSExslxWNdUY8CDuX3WP03/vvNvuKr5HuajdtD7FZ3s9mi9qVbi6c17a4v5CtZM86GkAjHZvxFio3gCjwPCosd9NRcyd5kNi7Io0wxNwH2sWToKAA8wEVdhRmjYjG/Qc7PzqbD5Xtl/EzK2wpAAAAAElFTkSuQmCC;" vertex="1" parent="1">
                    <mxGeometry x="160" y="445" width="60" height="60" as="geometry"/>
                </mxCell>
                <mxCell id="6" value="" style="edgeStyle=orthogonalEdgeStyle;rounded=0;orthogonalLoop=1;jettySize=auto;html=1;entryX=0.571;entryY=0;entryDx=0;entryDy=0;entryPerimeter=0;" edge="1" parent="1" source="7" target="9">
                    <mxGeometry relative="1" as="geometry">
                        <mxPoint x="353.6300000000001" y="579.5" as="targetPoint"/>
                    </mxGeometry>
                </mxCell>
                <mxCell id="7" value="" style="shape=image;verticalLabelPosition=bottom;labelBackgroundColor=default;verticalAlign=top;aspect=fixed;imageAspect=0;image=data:image/png,iVBORw0KGgoAAAANSUhEUgAAAWkAAACLCAIAAAAs4v8kAAAAAXNSR0IArs4c6QAAAERlWElmTU0AKgAAAAgAAYdpAAQAAAABAAAAGgAAAAAAA6ABAAMAAAABAAEAAKACAAQAAAABAAABaaADAAQAAAABAAAAiwAAAAB405u8AAA0bUlEQVR4Ae2dCXwURfbHJxMSknCFcCfhUhFEhZW/LKcHoougAgpeuIICu7jAeut6r+uKsut6oaD+V1dRQF1BgVUQERQRj5WFvwoIZFXucJ8JhByT/7enQqVSc6RnpqenAz0fPqG6+tWrV6+7fv3eqyupvLzc4/5cDbgacDUQoQZqQV/0n6/2T7iHhLdJ84riXiPfm9mQv0kZdZJSUpObGre8DbOMv+kZSekZ3rp1vXXre+s3IKe0YaO0tDQS7s8SDewrLbtl/eYrm2Re1iTTEoYuE1cDlmvAwIiCmdNLVizxNmlRtnl9+Ap8u/KDElDWk5KWVDvN27ApAJSc26ZWTiuAJjmrca3m2eBLrRY5QQu6mYEaADiylq8l/42DheUudgQqyM1xhgaS8FlK87fuGNjVkCclNtuhpEhtlAY03uy2KWf+slbbU1Pad0xp1aZWdksXUFR1ibQEDuPSm1z+yw6BNG6OqwEnaMDADuSwDD7Ct8kPLhJTsFZSupyLkZJ6xi9qd+zka33SCe74GMCxIs/jK6vQoosd4V8n925CNVCBHchgE3xorVXQBChJbnlq6i/PTetxrrdb7xMNR3TgQFEudmhvi3vpJA1UYgdSAR87h11UXrA/Vucl6hYqUFLv7B5JA36d3uv81PYdo+ZXUwoGAQ5Ed7Gjpjy/E1LOKtiBBoqKivb275JI+JCP4RiOYI+kDRxeZ8DgtP/pLm8eT4ngwEELXew4nh7zcdcWHTtooIPgQ6q7pIgoCSCSPmR03cuvOc4skaR/r62Mccgmk3CxQ9WGm3aYBryB8hBoyJq/wptzisf/5Q8kSEBOShrDNHhSR2a9vKPf6fmDzy38cG4CxIhDlSGBw+O5vm5sw15xkNZl6WpAaiAIdnAP+Gj41kdELh0EH0JkP4j4tv53702DtvXpeOi9t2RLamIiDHDUxOa4Mp9QGgiOHagA+Gj+7qdOhA+E8yMIQZn9t127tWt2DbVBXOA4oXra8dfYkNghmgp8MAXDcdaHEO6YI4MNghdTvG5NDXo8w9dsCB7jqEFtcEU9sTVQDXagnKYvvQV8+Lb97FhFEQrBiyEOsnfiQ44VUhUM4GC+uZoTNF0vufqnE7Sgm+lqwAYNmHo7gY/a/a9zMnwIL6bwxT/vH9qTWSo2KC7qKkwCB/xre009naglcQu6GohFA2bfzqYvTEu/dryj4YMxzey2hRs35PfIZWVwLEqJX1nzwBE/GVzOrgYs0YBZ7KCyxo8/53z4EAbIriE9HDgEEylwnJ6easkzdpm4GoiHBiLADqqvGfDhN0AYgjnwjynxUFl0PCMFjuhqcUu5GrBNA5FhB2IBHxmj/uBw5wU58V8OPjLOIfARHXA0re3aHbZ1BLeiiDUQMXZQQ6MHJ9YZc39NgY/y156KWCuWFhi3bpOZURVL63SZuRqIuwaiwQ6Eyrr30To3PVgj4GPLw3ckED4Ajin7DkX3GLNqJUdX0C3lasAGDUSJHUiWdc8j9R+aXCPg48D7MxMCH7fnbYkaONBwqju/w4Ye4FYRrQaixw5qbDBybI2Aj8Jt25NWfWEzfAAcT+85EO1zccu5GnC6BmLCDhpXU+Dj0LbdwIfv+T/a80AsAY5TMtx1tPY8LreWaDQQK3ZQJ/CR+fSbDndeDm7Y5PHW8m5YbQN8WAIc0TxMt4yrARs1YAF2IG29y69xPnx4fKU2wIeFwNHQjZXa2BPcqiLVgDXYUSPgY/+GbYZ2hPXx+C2RasoMvYXAwaZhZmp0aVwNJEoDQfYcjEUUttJgRbyxx5fzfhw9ld21U4VcvlJfoxzvvc9aKOYrW3aO3rLLMoaWbjg4a+bMdevXIdvFF/fv0qWLZUJazQg5p0yZ3KBBgxlvvsUOMlazd/lZqQHL7A4hVJ2LBzaautCZsY/yo8rRU1gfe7b6Hr+FzVktUafFwGHphoNbNm+eNOnZL5Yt+3zp0kf//Igl7Y0Tkw0bNtSuXXvPnj27d1mHwnGS9YRnazF2oM+M8y50LHwYIQ/588NH2kM3xA4flgMHMjZOMY77tOS3aPGiOnXqpKam8iU/cODAihUrLGEbJyZer7dWLcvaHichXbZowHrsgCnw0WTWlw60PhiprfLUObLbVxojfMQDOBDSwkW07/zznykpKQBHWVlZenr6hx/Or6IE98LVQFQaiAt2IAlnqTgTPnQtxQYfcQIOXcgYrr/++usjR46UlJQMHz7ijDPOSE5OXvTxx6FMLTV/37596/y/HTt2hK/fPCV8cKDgyl+1rlD8oRH01coQKedQNbr55jUQR+NQwAdbaTgzdFqpIwkfj7wWUXzuX7v2WxkcrRTISHWok141I8qruXNmY2scOnTo/D590jPSv/nmG+Dj008+ubh/f43j5MnP//Ptt3NyciZPeeFvT/z1q68q90/Kycm99bbbAoOsuD/PPP301q1bJCvquvHGkUOGDpU5MgH/ObNnY/vInI6nn/6Hu/+Q27KlzFET0L87a5bMadas2Z133R0oAwREWF9/fWpBQYEgpoE09ne/G9uwYUNZ3E1YroF42R1CUOCj2YLVznFeyoqLg2vwGHyY368Q4Bj4Yxw3N7RkMQsWgYCA3r2N8327detO1IPuPXv27EA9EAqpV68en/obRgxfuXKlJID+wIH9Y34zWguU0GNvu/WWvXv3QMnICD8S9FvisnR7WZwEPIdde80H779P7VyWlhpRJ2KiP//003XXDcMyUolJw+ruu+8CaGQ+MhQWFlLdkiWfykyRuP++exmaEZAEvsCWfALDV191pRlrRePmXprXQHyxAzk4w60CPpxzUlRQ9fjho9bTd5iBj3gDBwJaMiF98aJF9CV8loGDBsMT+OjT5wK6WV7eenyBoGogE4KTTznlib89yUDplBde7NmrFxyyc3L+9HDljH66JRiRmZkJHEDz7nuz+Td16ustWmSTif2i8n/qqSf3799PELTtSSdBvOCjhXC+5NJLi4uLGzVqdN+994BxmjDQt+/QQZMB4r9MnKg6O+AX4AiydO7ceeasd2GLGGPG3ITAZN51550aW/fSQg3EHTuQFfho/tlPHArp0LMapDoFfDx5S3j4sAE4kMiSSaVz5swhSlq3bt1u3bqJVl562WX0KwBlztw5st1qAuDIymr03HPP4x3wGW/fvv19993ftWtX8ikoP/v0bUrhJkya9Bw0ggPex223304mwzoM7ohMcGHBhx8iRv369WELMRAG53Hjxg8aPBggwFQB4zQZWrVqrcmAGwLWYLPgcEniV155mdYh8ITHHhceCszxmIaPGEGIB2cq0KiRZd1EjBqwAzsQMaVVW+DDkNX51ofHUys0fNgDHJZMKiUkSeehC/2qXz/5ltB1CV7Qk+fPmycz1QQAMWr0KDWH9PARN5CPibFs2TJxCz5LPlu6aPEnWrSiadOmEGBiyOjDd999C1SJYK3Gdtiw6+jqdH6wRr1FXTeOHKnmkB4yZKiQYfXq1eIWDTx69Cichw0bphEPHDgIlMH0YEqLdsu9tEoDcYyVaiICH83mfsMm5hxJzY7E2l17LpP9/nY1dR2zPkpufgKZVeJl+w7FNcYh6xrbIEOmo068/69/0Xnob4MGDlKZDBo0iM81XYtvsrRHJAH2RadOneWlSLRu3Zr+j4GQn5+v3cKsWL/e8ICY1rVh44Y9u3cTrcBAkGS7d+1mvgadvGmzZjJTJLAUcDG0TC6RISc7W8sXqETm0eKj4hbhEkQiTSgEHNHogST4IJKW715apQH7sAOJa7XIafHllh0DuxrWR4Lgw5Ti/PCRMukuFT4Ajt7rNpkqHjNRlzqxYiu+wLx5H9B/2rU7VTMNCDQQXOTWtGlvBGKH6I1aC7AO+NEVS4pL5C0j5PHsM+pwDHgExMBZ0pAoKKwY/tCMC5XGZFqTDcgAlRDspZdeBJtUJuQL7Diw391CRVWMlWlbsQPBgQ+sjx1DzhHwUftIxXFzR2slzBgJrk7ggwGCe24s/+MU4jV2Agf1xj5AS1CAnsZv584dV1xuBErlj84mxkS++/ZbrAYzA5lqeFLwYcyFUQ/GZbjMycnt1r3bySedjGUBQPx+/DgxniJrjGsCRGvevEVGRnBL7cxOZ8a19hOZud3Yga4N+Ji1FOuDxWnv9Pn71kZt6xbs6LBtTdf//KN2aX5cQaReduOIHna93Oaevz+0Yth9vUuDv5oRcTNPHPsALaOwOCz0K34+n0+tGiAgHkH3pp8TpNTmYkCvehyiII4P8QsYNmqUJXJYF8N4CmmGQtQ5FzgvcFCrq1vHMENAMcwENV+kxXCMZhkFkgXNQX4sHX733f9AoAEVtIibaaEGEoAdSA98HJ75fZc1jQpSPXX9b1pBsqfuFY+O+27BLZ9PSNm49Gh6lUCDZQ32WxORcusy4zHP0D9FWioW+q71q8QOI2VFh8zLW4/R3qBBJhZB0OLMLiViOmvWTA07cDpWrlihzRwjogETopKM1JKAP8vV6LqjRo1WgYNbq1atAibUGsEFHArYfv/9dxoxQYpfD7sW4vE33zxixA1qKTNpRnzBKREQDcQOMbmDAR0zrFyaKDSQGOzI27gH4EDcusdiagJBJnfqx7/7v5ox+r3rLDdAMHOiUBD7fbDm5a8bvrv7pLNsOrk+5p07GH+lr2Is3H7HHeedd37QVhcdKfrkk8V0MDqwHGSFEo/mhRemnOUfoJUFJz//PF0U06NHj55kpvhDzhgvYl2/JMMDoiyYpVouzLzANMBLevuttxj+UF2k559/DjCCbZs2bSQT8wnEBhowZ4jsXH311arxMnXqa89PmgSrPz86QcNB8/xdyvAaSAB27CstE8ARRDK/DXJvr2Hvn3r+C68Na7FjSbwMkCB1h8tqWjUUF4405nuxD7IIm4K+zUTSUOIw0YMuByIwHKNiB/R8zEeNvPHKq65q1tTomdgm/CWTsKswHOixrVu3YbIpI6CPPTahb98L8V9Wff/99OnTINPsDsBo5KhRr0+dCqYwY/WKIUNAiiOHj3ww7wMGSqgObqEALpTwMv+WW2+7+647qf2mm8aMH/97LBFEZbEf4R6BSoCgJHYT1mrAbuwAOFotrGLTBrYHY+TbrOyet3/6xrsP9P56glXwUa+FMfUgut9O/0zn6MpGWirGQRZGXnEosDuYeUW/DVW7+GgfPHhw7tw548aPVynpgWtWr54+bRplGbAAg4iY8PfxiRMlt8cee4zuyiXwAVTJ/O7duzOfHUMDu0Zm4o9s3bqVGWLEVrE+uMstAi6YJ40bN376mSo7MJEpCGRxmcD3QZ7CY+tWyMdVufnmW5jhigPF7FWQi0zazl/SzGF1fRapPcsTyQ8//LDlTEMxNAMcFWXLPZ5yzxudLjg5qemZa6eXpViwqKlxx5M9SVHNhSv33dep38baGZ5yxIr774HcpjkxnCbJh3fjpo0ntW1748hRfOrDiIuRv3nz5nbt2vHZp08uXbqUSzydV1997ZRTTtm5c+fRoqKkpKSGDbMuGzjwkUf+LEZVBMP6DRpgQXiSPDu27ygv9+GJtG7T5ndjx44cNZraa6elYdfk5ubK2s8559zOnX/B4hciteXl5VgK2AVDhwx98KGHVCFLSoqpF5H6DxiASLI4CUyk/+bl1alb98ILLzqlXTt5q2PHjj179qLV+D5ICxmSwPnRCRMAJknmJizXgMV7DoaRLwLgULgQTH18mT/8EXP0NKf3LxXGppO+0m31mub0v9mmYIfHs/fsDpZMSDfdwgpCvA+WkPHZf/uf78ioBF1dNUmC8jRDoxaMlF4tGz4dP87h6z0x70b1HY5cVdEBB/XgvxD+ePny6XImSOSVGyWiDJT6K5ve/pzoKo2mlDc5IcARStRqgYOCZmhU/pHSq2XDp+PHOXy9J+ZdO7AjauAQj0TAxzsD/h4LfGQ0MiYjRPzzGx32jbB4PLc1DOdlRCy/W8DVQNw0EHfsiBE4RMOBj7EXjP6k58NRw0dmG319hEmVXttrmElKS8j6ZCYSO3BYtMndljTKZXJcaqBKOMryFloCHEIq4OOqK/64dNf6tj9/Es1amChmhflK557S87P6jW2LdNDS3g2NWd4J+XH8Qu3U2o2bNJbBjoSI4VZaUzQQx1iphcChanPdXzuWF+yPCD7qZDfPPKmVyqT6tO0hUkMkS89kqb6NLoWrgRg0EC+fhYh3q8XVzOOIRuxkz1VjPmbZS0RlTS29Vzn6T5/M6TdOzbMh7QY7bFCyW4VVGogXdjT5LM3jnyRqlaAVfMo8y5pkRzrsYixpM//zn+Fy3q/GGxvw+OLRhpCiXNvMgmksIbm7N1wNWKqBuGBHvY+Y1mepmAozMezyf2eMMbkFWWSjswI4Lr7V5jCHaF+MS+AUJblJVwNx14D12BFX4BD6AD4uH/aiSd1EMBU9ocBxWyNjn3H352qgpmjAYuywATgqNJvsee7qV80M2Zp1WPwxjvMSZHHQqCGNXeyoKb3GldPQgJXjLEmLKtfU26BdpqsvfO2m09bODTPmYnaERYyqEBy1PcYhFVXe/XSZdhPx0ADxe86gYYd3Fr+o/FkRo05IZSeBn3+u2M6OJXbaImO14Ametgw7ggBH+GEWKwIinQ9sm/2XnDALbXN6djE24Aj/85Uuyz2zd/ehCQQOHJan2lWuHAsvr3s3Ug18OH8+S/43bdzIejmtLGt2Tzut44svvSTywZdLBlSemMfdq66+muMgtFLuJRqorl+ZU1IFcAiw8INC2Z5i35Gy8iNVdruTzJLSvd50gzq5kXFQmEcpKGnMJMSYi7FRULCVckaUNDxw+AMcT5w9pGLWub2jKmoDH2zbQr2suWkW1LGRhyp/qIMgVZr4pZcs+XTCo4/Cn/W1bCwiNmrVqvvhhzVyEd3uXbu4K8lYyL927VqN3r0UGrAAO6TFUbazuGxvScmu4nJjfwZPUljegob98T2pntRGqQJNDCiJBEcImk7oPmzEihc9W/8b6LlUEyX1lfoa5fTpemVChlTU9+/6+nXsXP/GXmHT3nhDnlQgJOlyVpfY99diA2Q26RD7mAq29D2OtuW4NrW9tqU52pIT6jhNLnyN2mL/8MTuXamBsP1bUoVOCOAozisUkCHwIjxqCGaVND4PZckETZJqFZZ7PbVz07BKkpv6TRITrs34QS+9NKnj0RR9i9OQUVK/ucF880G/6JdAP0UqdUyLal5uSWlJ4re/Gc3Oo+zlo3Kjz3MZO3yw7462b5hai51p/JRQwCG2CJLChNpqSBK4iaAaiAk7RswvTs0rKcgvNg8ZQYUQmRVMfJ7iTUUGjqwrTGmSmpyVUmGMhAKRMs+7rU67rd0wbZ0LUdLgdWnmRuL8lArxvMm9bFzDwq5i+PzSJpcqwliYMWNG7NghGSY2QbzziSf+qlkcQAZtx3nhdEspHt4KWyKqsVJ5y02E10D02AFwvP5ZIR2+0oIIX1UkdwVP7JHi/GJPaiFOjQEiISwR9kl+uv8DL02aoZoeQRbO+s2NqWdeesNp3Q1ZEo4afoXMbRsC4yJRl3nauXOMsxcC6TEWNm7coO17HEhWU3LYSFHsPCgFZokweymypyln3LlIIdUSS6KK4WqekQEcHxfEAzU0GQxs8js1R1YXFizbV7LxiEEgYiKS1G96qDNN9SgpqOEr/bZZO6ZvGMABajgDOPCYLmsS1cYisu2RJPgac4xbqIOX2FLw448XRsJPp2VEkyX89FL5wzmqVStFp4v/9aKPF3GChKwHiyM3t6U8SVvmu4lYNBCN3fGXDw+//nFRUkZSLBVHWtbAKb87c/SnotQWuhmC6fHwJQ/NXvXSUY8xYJHN0Kz4+W0NNg1kG46KmKhDUMMv3uftjONObPtxkpP2NVarBlPenTUrlvFIpkJg/7Otscp2+PXD1Usb0kAkNpTqsOCq3Hb77TZUfUJVETF2ABz3LLQbONRHAohU+DJ5hURVU3LTDTPEv0burZaXQlmnYNeN/kNVSDOScn/78ybmdjQ4OAk1EIfhFTsjHdTIaQnq15gcPshqaJM0g5pRn3gAwyiOaKKUtT92S1aHTmgju6W7U7ysVTLcIvNZZvy7KLHAIdsvfBlskMIv9hWvNaYJnvv2fXOPHJlXUvJmct2xaw+AGvf2HJbc93cGcDjHSZEN8HiePbWlchX3JLEMRmdVpKDK4cNHECyUdRMKmTlzprysoQlmjmrNbNtWH4OroU1zlNgRYMf/bS697u3DNrsq4ZVlODIeD/HUBvOWN/hxofja8HddQVHnemc6FjWQ+eXcJnbO6aBGjA41SgpkcIDLJZdeqo5Q0uU4mUWcxmhotmb+ior8QbFjwmN3cDLDsSv3f8s0YBY7eNXOevmQo4BD6kAgiLwkoX121FtOSOOtjMqN/qCpKJrA4+OoNDVKypqOvhf0ZcTh/D59CG1KngREOFdNXh4fCfZSPD4a4qhWmMWO8TNLPJUvmIOawEyQ8qNp+Z2Ki7yV61DTDh1cdXYPpwU4KrTmTX69YxubNQhwqDXyKWYRhzjAlW1KOc9J3iUgIuaJyRw34WogqAZMxUrxVl5ZWeI0o8OY1V6W5m230vs/b3rq/7wtp3mbyXuTDpcfrVVS+OhTDbOzaXDJ4cMF+/cHbXmiMvd2qTzTzDYZZs+uMq0DsBg8eLConSNmmSomg6aYbPgszC7Xzqy3TdTjqSKxJPfQoYO7d+0uKCyoW6cuw9gNs7JysrPVk7draJNNYYfTvBWBGknZPyWf+yKo4Smpz791bX2rR/knn/pKGp5asZ49JSOjYUaGgSAHDznBDPl3xzY2hzl4L7ds3pyXt16dS0pICFdFvrIEPjgmVjp6hEVwW6LDDkDnmaeflpw7nNbhvvvul5eBCea5Tn7+eZnfrXs3dZAYV+vbb79dvvybbVu37tmz9/Dhw4KyQWYDzrhkP3c650MPPXhg/wHJgURpaYl6TiWe2n/+s/ymMWNkcZU4MK2WDbxrJgeFL2I8/ONFDBWjahQrInGUFdElZsEwkffcc8/rc8EFJvU8a+bMOXPmyNo5QpizeOVltQki5U8/9ZTQQEZGxm/HjDFZr+CsPda+F/ZlQK36NfhTPj0y7oMjSWm2zuYIows8lNRcX1mXJ5Oa/9tAjWO/8oLiss2HjCtfUXqLa9Lb3FBeVjmCIKgSa4YAHAnZVZAlYR+8/76cTEl0o2evXmqXxtC46sqh6oQITsNe8NFCWeSYjqv///e/H8/p9hKGGPLgqOowr+nw66/nkFpJD0a8N3uO+CZPnfoaiEY3A8skgZCA+Rpjx44bMnQoPWrKlMlab9eIRREMq+ql91OoxSnVqnVrJpWZLAuWvfDCFA73JmyE96eyCuTAg8AAbNfuVOaeVDuEPKD/xer4Oopd8tnSQJ6hcq64fDDVSXlQ4KLFVdzYUAVFvlacKX/z5n9YTbwD4B+3oMghwGGYG8RBz5vhG3B1UqO1KnCQXwEcpLxpR/LfCgQO7hhmSHZ23cxMYwmcvb/P27dKCHDQShU4uOR9Jcahtp7pD506d1Z7F6++FiJR6cOneUHlL8xUNMlEEpPgiGzy6YHDrr1m+rRpgBfmEoaDSkNaZUtauys5qwmNJsylWiqiNDbU0CFXcKYvMiM5VYQvTrugzM/fxupE8D08ce9zzuEBSbExZLAFwheRd7GD2PRIVSO3oi6OGGeddRYcqsGOZz8NvgGHFMu2BOaG96QfvAN/k9T+PQ01kAGjQ5OkaPNbSclpWqa4NBCkeTP7QMSbPPfkHJungcmG80KrR73x4HlfAw2BoUOHqhFTPvWESCQT2xL0jcLDh2+5+eaDBw9q1kRQGQgiBM23P5Nlu3ffdadAOq12Pvh8g8WPNI9AJaDJWHzM6GXrEzVfS/fq1YuyMpMH9OWXX8jL8AneARVtIab4J4sXhy8l72rFEeOcc87lbjXxjnuWHA0cAZVM7UmUF5V7MpKSBz5R4aSU+Nfma3Uf8dskMhPTY8traS2vkRlBEyIawq14BUQ4mLp5s6npSXYuWtFayuI3tRNibV4xZIhGw2W3bt2lT84lL3Re3nr7l8bxTuOWszEgH0kpJJ1N629y08A2bdrs2rlTWCuSnn6ieVsUx0qXBGESNFxVVxhK9Ra96/HHH1OdPu6KSuHWp88FyEmUFLG379j+9VdfEwdh9ZDaRkAHQ4+/arhHraJTpyqGIXIu+/zzUMRqQdILFy5U/R1yqPqzz5bcceedGmXQy0+XfKoWp13duneHMhx2MIvUU1ruqZXISIdhbpy60tvbb9Ep0Q2tkWW7K0cZK24lpx3c9FyDtncFdV604iqIcCv2wCpuETxhlVjgwPhn8RtvpGwvr+/AgYPkpUzQ2fr2vfCTTxbLF5puzNK4av1wycGSBF0CG56/cOMdxRRCHpaxNWqUpc7vokXMaoOG6fPER3b6N/sSAtBFv/rqSwIlEj7gc8YZZwwfcYNEnFCiUnb79vy/TJwoy4aiVPNR8oMP3K8BB1ZGq1atgwYy6PAEmF555WXCIuqjAWXYcARRg64JIDDc8fTT2TZRKIe/MMEZqXa8BjI+A2pFQnjA1My3gYYwXVAWR5kEaMSpo+Gw47qEhkiN6EZpeZ0r5x7NeiPQSVEfXvmuivC7mknUo2zrB6VZA5LrnlwlP+yF6PAMzQgq7BESBpTwC78cxh9AqVu/nuAgiicWOJBBW/zGgyeuEeq42Usvu2zevA8kdpCYP2+eyS+baK8lf0XfwDBml43b77gDgyh8T6bzaP2H/q9OlqXVWVmNTIJgnYwMXLzwNWrNZGM0qTRxi27Zr9/FYb7qBJiIVbNXG5uMyG5JWQAI5ArV5EsGXPLUU09KswjzCntHa7smG5efL12qOSyCxuS3gXEu8UREKezWiy66SKRDxjuY0+EpKBdE9v/FT2GxbK1r/1gtcCBbEKNDSJyS2XLDM7EIDxDwzwiO+OMjhEjEP8wK8U/mCBoVOJ7wliTQVRGtnlV18RufceIaoRRC7+KdpqdJAjowS+PkpW0JvnXstcFOhXyBI+rGtkkoK+LT/fnnn6vYgdIY/w4DHLIsOy0xWkQUU+aQAPWIbas5Mn1Wly7q08GPwJuQd0MlNI9DkoEIeD3yMlQC6FFbB7DKseGQ2PH8kiOe1MR4K34/Za3vot940veEtzhocGCUVNXC6kN5xds/ChU0VSkjSgtMUZFCKw5w2DzrXBOAS15r7FX1o8FLwDctkFLmDBkylA+LvOTTZP/SOLoH1r75YVEpbUISoDORC61qdfxbu6VdMsyMJ6IiAmbFq6/+QyMTlyB7Tk6uJObJ4k2As0GJRSb+1HeK4UBZtTivBy9JmOLcWrDgQxU7EE9aOsGxgyPsX1ldmpAoKcCR3GmZt89j4ZtUeVeLklbe8KdSMgs3TTET8tDKxXLpBOBAfl5rOr9sCN/D/gMGhP+MX9C3rxoU4O3kzeP9k0xsSGDw15S9Nui32meZnBtvHBmRltjKTIvjYh6GGkBlUpYK7jwgfIow1X391VfSYQE1WrTIJp4i4YNbxIbCFAdZJDFkvEK/6tdP0gfHjvkrSowoqe0/Azh6zE7q/ky15oYULaTDIikIWKy+33LTQ2FfJekQ4OAlJhSnfjF4Iy+8sMJTrSKxckEopHfv3urrQviQ/fsUkvgmqZpPq8nYRHxFMcF948aN6vg3JUBe8NdE0UoSGqtaE9ygS3///XeVFEqqe/ceao08X8BLua8nOZVGfj9EqILOz5sg6PB6wq9dAlkk9FCEgj169JR1BMeOxetL7B9eMYDjvBlJZ043DxzBo6SycSLhTSs5+J+jW+faAB8OAQ7azYCf6q2Y75MDBw1WP4PVvl6asmO85P3m0xojE9uKcxKN2rVQMisMQ4Wiw0jFTHwVr9H58uXLg9IDNBILIAA78CmCUpLJ90N1WESoolOnzhJ9eEPY5I3BmlActK0baaw6Myg4dtjvsFQAR7B5X6EaRr4Zo8Mojufy81OlB1aHYRX7LecAB23RFr/RJwcNCjI0G9hqImEyks9dXi+84lAmdGDx2HOaNW0WOxN7OGzYsEE9qoL+365dNAsd8SNwB1SZ9+zerV6qaRxPlZhKQ8Usvv66isNCuIRQBdCmziHGrmSwRuUv0zx3gEV+gaiUua3yLokg2GGMsBTb6rBUuCoRAofajOrTyWkxjrmEr8JRwMGXJC9vvXzqSB6RLY1ZyydLtpcPnW07ejDKIOt1fkJdiYO0Pp+POWBRiN28eQvV7uDBMa1WfQQqT7wG6XSQjy0QKmbx0YIF0mnl49Hv4osFn/PPO59LkcbGUZfYqRWtXLFCfYXADua2qgRBsMPmERaGY1lHH5GrIhpgymGRbfWmrT68mdli8fBcHAUctHhO1RMGjC9G797mbelBAwdJsxZuvH94QKFeZangEzBx8JB/4s+xlgN8fMaPXUXwP5NKNGoVHbRbnLytui10fjwLjYZLntfKlSsldvBAiZUIMswH+XxBB4wLTIxADkuXfiaLi7v4OypZEOx4Jc++ERYmgKW2rG2MqoSeM6qKq6bNOiyyjH+2mOWBjxuOFiZ8OFY2UST44KjjKbyIQ4ZeqdGEucSyZe6g+iWEOOqlcWEqqum3Soorx7NFW9IzKge2zLeOKbOawcVlKPjgybIMmu+B4B+q8zP+InnyKJmBJiPQOC/q88VyCQy4atADh/YdOmifHx078jbusXVKWFmar/c9UQCH+QdThfJY4MMq6wPgcNr59bivarBTvDdqiKuKQkJcsDOQ+u7yoePUuBC0brYFGlAXE1XLTlsXB3zgX2il2D5EWg28A30vvFAlYG6o6rYEzjFbs2aNtE0oCDGzWlUOpHXs+GZHnYA8rYhll+WHyxmRNTbvifwXfkpYOH4pmQfX3EHcNHb4GJjidRpw0PDAxW9s7RNOIcHuMeWRF07e4e1k+VaYgLykdBM2aEDzHcAI/Au1XqwGdeIJnwFteF5zW5hjps3iYZGu6hkRL2NWq1oFaX09i52js6mta/s6/CtKoyP8lDCtldqlN+3g2vsbnm0s0o962hjA8VqLBhrjhF/yBjBFWl2XJfzhL78INwUoUOyU1BSsXDWf2ZOEUexf3qLK4Pz0kcMBazLNCS39CzPk+A54EHJdHNjxzTffgBfSURVWg7zEK5EOi+AvpqiyXpmvAjn8ZRaZehqxGmflK5KTk0MRTTbd7rAt2EGItKzNu56Ug5pAJi8jDnZofH1F+5ZfA3BEZ304EzhoIovftHAdrwWvCItTI/rHe6kpjBeU90nLPMEvQVhLNEDwQvNZtMvAWvAgpNPBXbo3eCHJ2JtDWg0wF2uO5V2RYMxecoBYtVwwMNmXTNJDJsdoZCaJKtjBVHT7NkOvlZTUbn6URofagujS3jS2JgQ+onBeHAscaGL69GkYGppKgI8ofhoTLgmjhJoLEEh8IuTUr7qShQ6vzug3rwG1o4pSWAqy8wflgweh1gWxuhWQuh4ah0WdDCq5MZFHcuD1wFzFchF3ecrqF0gdo5HFSVTBjo355fbM7GB4JanZtqiNjuiDHVWabuwqFmnsw8nAwRwhFmXyHqittDDNC0owxUKGNZ0V4yNqVIh5YmztE0WjwA7tqeFuSI8jKEO/05Eja8cqZMMEQalN5GOmX9BIOaNprVu3kRxAK+aSCQ7aXkHqGI0qTBXs+OLHEtvWznob56tyRJaOJdih1UTs4/txJgdunQwcNEtb/EYOb0aMP1VbvKDsJKQF1VSCEy1NFID5YLLV9H/2apaX5hNr1/6gOik8sqYmJtfiR0ing7qwL0QwWw1z4rCwG3soSdSVddIn5fnmKRML4dCrV++gHKrESldsqUmz+oK2J5pM/8BtUfG6+q1+HyZ66nDgwOBkCoY6nZxXkHWT7LgVjU6OlVm1apX6SeTrREiFlePH7p/Q/3focJoa40RRWszSpHZYvaJ6mjw4M3Pbmev1+tSp0jzxGw7GVkCsgZSPDEDhGIdQYnAwoOQgPgxQfvddlc1+wnCogh1v7PXatu7et7tF1LZ1rIHSQF2mZJZtX7Rv+6I6rcamNv+VhiBcXuYtduCoitqOwLlbhCcenzhRm8+jFjGTfvJvf1M3IuQVJ6TiYodQ3amn6jPoyGdSltwdx4yG+c6zYk0dGuNTf3bXs6sty9AJ3gRAI5CCR8M0DarGb5VjZLiZQR0WwRygycnJVUdb8HeWf7McHJG1A0nMZJWXaqKKz1K8+ah6L35pEKp820nl6y6POuRhvWxET71pLJkjgIoLU1bwI5DBPyrissmWV62v0VKO2uI3Xqnu3bvHCBwIyEaEh5SZ17ymvJqhFl9Z2qAawAz1qhM0kZi+qh5VZaYNM2ZM13YP4tmF36JJsmXGF8TikkezdcuW1994XdqeYBAzUCVx0ITqtiD8rJnvgH0SO+DAcQrStNE4VGKHMaO00nfTyCy+NKai5/pKLxl1c2p/B8EHrUzJ5A/bBREE2fvlxXu/Hrzv34MBlL/99OZd3zxjsRasY4ej+8MPa6SlCmOMDlbTx14DHze8evmCwtB4w2bNjJ3z8cHh2mHXYtXLtvAI2C2VE6dkTvgEKMz+xrKvQkx3BRFCdVeNm7YujrtM05CvgcGqb5XppFpxLtUNQSiIi1pQULlIBw7qZj9a8UrsKOQs6MorjczKSwM4WqQevdlYNfRkq3GRwoc1gyzhG4QNAojwl59Ip2Q6GT6YtaV9u+jhEVnOYfQxfPgItXvwortL46S62FGV77yKrVxOmTLZzD6vIP4dt9+meiuwxcobfv1wyT98Am8Cn0KlkcBBJmOr1b4D0vERTNTigkOnquvf1Loq0cIYZIn/cQoqcAg5gI8J6cOcZX2oGpJpP3z8ZtmjMsM5iTmzZ6vfLuKmV151lVXisXOv2jcE28DwilXV1Tg+f7jnXm2CBuGGR/70p/BHvXEW1MiRN2p9FWvxqquvJgxhUgmYJ/gUWAeB9GQGndAVSImZo47XSAIeevitjCqxw4ZBFoDDk+o58Fs9SHp3zrAI4MPCAVqpJ5OJlMyXt/zLafAROF+LOT+E0E22qVoyXlBeL/UFxahhM7tqC54gBHzbOfKGbq+2F/hgu/NfXXQhwWZsEHwTrAz+EYzknF1OzBSnJajYgYbZyCPSWf/4FOqjkTKQqW23IW9pCZa6qMve5F0ARR6nIDPVROU4S7wHWQRwHLk3PagvB3x4tnru98xI2ExTVSth0n748Czz/L3XA2Go7LzFfC06s6yRzwUbQ5n/dsmCYRKcX6vufsobz9AAPcHaWsII4PBbnKiwYeOGH//7X/XdFmlGqdgWUBpuqI6pHIyJyIimaBoE3Hp20qRIW0pUlZ6vcRNMTAZccVuCFucLFN7lqbQ7SnYFsXwibUkoegEcex+srypXIwY+Xq43rkY4Ly/nL3SI9cGuLczXUj9fxCbCHMKi6dzkJeN8TGSUHYBSzFletDjIljMmGR5/ZBwKgfvAIJTWNHxJeiZmiPiRpguozwt6fEz0+drU16MYF4ObuoegqB2jo2vXrmH6miZkoPHCsyZGHv7bUIkdrIjXOFp1KYGjYS3dW9GqGNGsf82AD28a8JE6f6wmv/2X2sZwCMBnzeQHJyJpObpFjZjy5eT45UAO2nY4KtwEEpNTWqpvnxOUzM5MdboX9WotCiPJhMcev+uuu+m3+C/VNlzwATWAG9aqcZBVFMAhmLAuTvOYeFJhxkcCm4Dboo7EQxBq/ZtatgI7jAHa+PzMA4eovwbBR0nh6oTDB+en7WPbzD17eAX5bd60adSo0eY/OOafuViLKSsiOsgOvYHFe/TswbxsIQzEELRt2zaQTOb06t1bpcf8DtwnQhKbTJx80snwkaLu2L7dzFQrwZwvLSNWsiyy0SKT9ULGMvaZs94dM+Ym7AiY0KVBB9AEKBE/0vwEZPBXoEakMQ5NHirFRJAyk+C8qKCH2moF5SVuC7tSqhx4hYKeWyyLkEgqLzfMDfY3PuuZg0kZFh8EFylwSMnm7/1q4N5Hg8Y+GKMt21w5BC2LJCbhKzo9o+WqAdMSU7u/VvEiCgGwkKP+fJlpgrqxZeCGDoIDEyXpHiIdikatS6XHsLcE+GLUiWxmLPqECQtV2Eudcwzy8/OxX1izz9Lb7Jwc0A3Qp8eqeogxHbvM6oMw8+AqsIMj769753BSmtXY4fUQ46jWVQmqtVDw4SzsQHQHwEdQBbqZrgbiqoEKn2U/wQ6rJ3dgdKwf6YsOOGhz/6zuc7MeqAGhU/8O7GfM+zXfurg+Kpe5qwFHaaACOw4VWR8oXX+Tr13rRrG0Nih8JNWtXKgTC3Mry/rh4+zFo43Nk9yfq4ETQwPHYqW7LX7p142OFTiE/oPChxMfjR8+suYOcOHDiU/HlSkOGqjADgsnhuGqWAUcor3Ax5J6E1TnJblx5VSoOOgkWpasfPEVufARrfrccjVMAxXYUbzHmolhAMfKsfVidFUCVdizWWcDPuQvvXI6rMxzROIYfGwqDHLQliMkdIVwNWCRBiqwwxJuAjh+0TIuHduAj6w/CDmdGPKQGvTDR+sFw134kCpxE8elBgzswEVPinnnDqalYnHECTiE6oGPH1s9LdIOdVuEcC58CD24f49rDVTYHZgMsfwM4Li1flyBQ4jXqk4zAR9JTfTjf2OR3/qywIfH03r+Va71Yb1uXY7O0ICBHbu37o/laAVOabIHOITGJHw42vQQsnrTXPhwxnvuSmG9BgzsMHYMi/ZnWBw322FxqAIK+HC66SEkduFDfXJu+jjSQIXPEl2LbHNVAsUT8FEDTA9EBz7eH/jFjm8DW+HmuBqouRo4hh3H/jffkgQChxAS+Pjpf14y0j7HTwZPyez16W9d+DD/drmUzteAgRlr8iOOlCYcOIRmgY+9A+cZ2xG78OH8d82V8PjSQOT2hscDcEy/OsOGURUzqmatXfkVC1gI78KHGXW5NK4GrNLAMewwvYhWAMewX/rPH7BKipj5sIPG6BYXeUr2x8wpzgxc5yXOCnbZ26YBAzuMBfjmfs4EDiE7mw/fedK1NQU+2J3EnMpdKlcDDtWAgR0mF+A7GTiEdp/oeuuy8//XcF4cHv5IyRyw8BYXPhzaJ1yxzGngmM9SHbXzgUO0gHnrewcvrgH+iwsf1b1y7n2Ha8DAjrzqNu+oKcAhdE30FP8FA+T0tCaOdmH88DFp9ZsOf0Vc8VwNBNVA9XYHwDH5snSnBUeDNkbNxAAhgDrvomeNTMfGUFMyb1n1jAsf6oNz0zVFA9VghwCOsec7cq8dEzpm3yBGcEGQChvEgXEQFz5MPEeXxIEaCIcdNR04pLpBEGwQvJiKOIjTgqkufMhH5SZqjgaMMxZGTzv0yurSpKpb9gAcEy9K+8PFzl7qHrmi2azkjXX//N+NH6w+lGeUTk4zpqU64VeynzFmhoqcIIsrg6uBajVgYEftSYXF+cUqdhyvwKGqg501Vh/9+d0fPuZoeyPfCSDiwof6hNy0szVQgR3qQdYnAnCoD4VzVVYcWPfepk/m71peaYxAkRB7xIUP9dm4aQdrQMeOEw04tEeDR/PDnlXLd6/5fv+PL+9YWjFAg0kifvagScn+0bmXMcysyeZeuhpwlAaqYMcJDhyBDwa/ZkvBdqBk8+Edz+5eX3Lkx8rh3rgCigsfgQ/DzXGYBiqxA+AYdVbKy7+u5zAJnSWOMEyQSQDK/uKCLw+srfB0VEklssjMSG0W13mRqnMTjtSAMbhyfZbvlS1po84qdYGj2mfEpFVmnUEm/qr0Yltj7JQDKUfy8n/mFtYK4DL14LZTyw9yubpoVwU9g8Rl1e9XRFmVv5t2NeAoDRh2BwLlbdxj+YFMjmqnc4TBckGYQ0d3ayIBOlpOlwbt09KOhVq0e+6lq4FEa6ACOxIthlu/qwFXAzVMA/8P+fOYA6QZMw4AAAAASUVORK5CYII=;" vertex="1" parent="1">
                    <mxGeometry x="290" y="450.5" width="127.26" height="49" as="geometry"/>
                </mxCell>
                <mxCell id="8" value="" style="edgeStyle=orthogonalEdgeStyle;rounded=0;orthogonalLoop=1;jettySize=auto;html=1;" edge="1" parent="1" source="9" target="13">
                    <mxGeometry relative="1" as="geometry"/>
                </mxCell>
                <mxCell id="9" value="" style="fillColor=#ffffff;strokeColor=#dddddd;shadow=1;strokeWidth=1;rounded=1;absoluteArcSize=1;arcSize=2;" vertex="1" parent="1">
                    <mxGeometry x="240.26" y="700" width="139.74" height="60" as="geometry"/>
                </mxCell>
                <mxCell id="10" value="Cloud&#10;Storage" style="editableCssRules=.*;html=1;fontColor=#999999;shape=image;verticalLabelPosition=middle;verticalAlign=middle;labelPosition=right;align=left;spacingLeft=20;part=1;points=[];imageAspect=0;image=data:image/svg+xml,PHN2ZyB4bWxucz0iaHR0cDovL3d3dy53My5vcmcvMjAwMC9zdmciIHhtbG5zOnY9Imh0dHBzOi8vdmVjdGEuaW8vbmFubyIgd2lkdGg9IjIwIiBoZWlnaHQ9IjE2IiB2aWV3Qm94PSIwIDAgMjAgMTYiPiYjeGE7CTxzdHlsZSB0eXBlPSJ0ZXh0L2NzcyI+JiN4YTsJLnN0MHtmaWxsOiM0Mjg1ZjQ7fSYjeGE7CS5zdDF7ZmlsbDojNjY5ZGY2O30mI3hhOwkuc3Qye2ZpbGw6I2FlY2JmYTt9JiN4YTsJLnN0M3tmaWxsOiNmZmY7fSYjeGE7CTwvc3R5bGU+JiN4YTsJPHBhdGggY2xhc3M9InN0MiIgZD0iTTAgMGgyMHY3SDB6Ii8+JiN4YTsJPHBhdGggY2xhc3M9InN0MSIgZD0iTTE4IDBoMnY3aC0yeiIvPiYjeGE7CTxwYXRoIGNsYXNzPSJzdDAiIGQ9Ik0xOCA3bDItN2gtMnoiLz4mI3hhOwk8cGF0aCBjbGFzcz0ic3QxIiBkPSJNMCAwaDJ2N0gweiIvPiYjeGE7CTxnIGNsYXNzPSJzdDMiPiYjeGE7CQk8cGF0aCBkPSJNNCAzaDZ2MUg0eiIvPiYjeGE7CQk8cmVjdCB4PSIxMyIgeT0iMiIgd2lkdGg9IjMiIGhlaWdodD0iMyIgcng9IjEuNSIvPiYjeGE7CTwvZz4mI3hhOwk8cGF0aCBjbGFzcz0ic3QyIiBkPSJNMCA5aDIwdjdIMHoiLz4mI3hhOwk8cGF0aCBjbGFzcz0ic3QxIiBkPSJNMTggOWgydjdoLTJ6Ii8+JiN4YTsJPHBhdGggY2xhc3M9InN0MCIgZD0iTTE4IDE2bDItN2gtMnoiLz4mI3hhOwk8cGF0aCBjbGFzcz0ic3QxIiBkPSJNMCA5aDJ2N0gweiIvPiYjeGE7CTxnIGNsYXNzPSJzdDMiPiYjeGE7CQk8cGF0aCBkPSJNNCAxMmg2djFINHoiLz4mI3hhOwkJPHJlY3QgeD0iMTMiIHk9IjExIiB3aWR0aD0iMyIgaGVpZ2h0PSIzIiByeD0iMS41Ii8+JiN4YTsJPC9nPiYjeGE7PC9zdmc+;" vertex="1" parent="9">
                    <mxGeometry width="30" height="24" relative="1" as="geometry">
                        <mxPoint x="15" y="18" as="offset"/>
                    </mxGeometry>
                </mxCell>
                <mxCell id="11" value="" style="edgeStyle=orthogonalEdgeStyle;rounded=0;orthogonalLoop=1;jettySize=auto;html=1;" edge="1" parent="1" source="12" target="16">
                    <mxGeometry relative="1" as="geometry"/>
                </mxCell>
                <mxCell id="12" value="" style="fillColor=#ffffff;strokeColor=#dddddd;shadow=1;strokeWidth=1;rounded=1;absoluteArcSize=1;arcSize=2;" vertex="1" parent="1">
                    <mxGeometry x="450.13" y="700" width="130" height="60" as="geometry"/>
                </mxCell>
                <mxCell id="13" value="Cloud&#10;Functions" style="editableCssRules=.*;html=1;fontColor=#999999;shape=image;verticalLabelPosition=middle;verticalAlign=middle;labelPosition=right;align=left;spacingLeft=20;part=1;points=[];imageAspect=0;image=data:image/svg+xml,PHN2ZyB4bWxucz0iaHR0cDovL3d3dy53My5vcmcvMjAwMC9zdmciIHhtbG5zOnY9Imh0dHBzOi8vdmVjdGEuaW8vbmFubyIgd2lkdGg9IjIwIiBoZWlnaHQ9IjE5Ljk4OTk5OTc3MTExODE2NCIgdmlld0JveD0iMCAwIDIwIDE5Ljk4OTk5OTc3MTExODE2NCI+JiN4YTsJPHN0eWxlIHR5cGU9InRleHQvY3NzIj4mI3hhOwkuc3Qwe2ZpbGw6IzQyODVmNDt9JiN4YTsJLnN0MXtmaWxsOiM2NjlkZjY7fSYjeGE7CS5zdDJ7ZmlsbDojYWVjYmZhO30mI3hhOwk8L3N0eWxlPiYjeGE7CTxwYXRoIGNsYXNzPSJzdDEiIGQ9Ik0zIDMuOTlMMCA2LjQydjcuMTNsMyAyLjQ0eiIvPiYjeGE7CTxwYXRoIGNsYXNzPSJzdDAiIGQ9Ik0zIDMuOTlsLTMgNCAzLTJ6bS0zIDhsMyA0di0yeiIvPiYjeGE7CTxwYXRoIGNsYXNzPSJzdDIiIGQ9Ik0wIDE1Ljk5bDQgNCAyLTItNi02em0uMDEtOEw1Ljk5IDJsLTItMkwwIDMuOTl6Ii8+JiN4YTsJPHBhdGggY2xhc3M9InN0MSIgZD0iTTE3IDE2bDMtMi40MlY2LjQ0TDE3IDR6Ii8+JiN4YTsJPHBhdGggY2xhc3M9InN0MCIgZD0iTTE3IDE2bDMtNC0zIDJ6bTMtOGwtMy00djJ6Ii8+JiN4YTsJPGcgY2xhc3M9InN0MiI+JiN4YTsJCTxwYXRoIGQ9Ik0yMCA0bC00LTQtMiAyIDYgNnptLS4wMSA4bC01Ljk4IDUuOTkgMiAyTDIwIDE2eiIvPiYjeGE7CQk8Y2lyY2xlIGN4PSI2IiBjeT0iOS45OSIgcj0iMSIvPiYjeGE7CQk8Y2lyY2xlIGN4PSIxMCIgY3k9IjkuOTkiIHI9IjEiLz4mI3hhOwkJPGNpcmNsZSBjeD0iMTMuOTkiIGN5PSI5Ljk5IiByPSIxIi8+JiN4YTsJPC9nPiYjeGE7PC9zdmc+;" vertex="1" parent="12">
                    <mxGeometry width="30" height="24" relative="1" as="geometry">
                        <mxPoint x="15" y="18" as="offset"/>
                    </mxGeometry>
                </mxCell>
                <mxCell id="14" value="" style="edgeStyle=orthogonalEdgeStyle;rounded=0;orthogonalLoop=1;jettySize=auto;html=1;" edge="1" parent="1" source="15" target="19">
                    <mxGeometry relative="1" as="geometry"/>
                </mxCell>
                <mxCell id="15" value="" style="fillColor=#ffffff;strokeColor=#dddddd;shadow=1;strokeWidth=1;rounded=1;absoluteArcSize=1;arcSize=2;" vertex="1" parent="1">
                    <mxGeometry x="645" y="700" width="120" height="60" as="geometry"/>
                </mxCell>
                <mxCell id="16" value="Dataflow" style="editableCssRules=.*;html=1;fontColor=#999999;shape=image;verticalLabelPosition=middle;verticalAlign=middle;labelPosition=right;align=left;spacingLeft=20;part=1;points=[];imageAspect=0;image=data:image/svg+xml,PHN2ZyB4bWxucz0iaHR0cDovL3d3dy53My5vcmcvMjAwMC9zdmciIHhtbG5zOnY9Imh0dHBzOi8vdmVjdGEuaW8vbmFubyIgd2lkdGg9IjE0LjUxOTk5OTUwNDA4OTM1NSIgaGVpZ2h0PSIyMCIgdmlld0JveD0iMCAwIDE0LjUxOTk5OTUwNDA4OTM1NSAyMCI+JiN4YTsJPHN0eWxlIHR5cGU9InRleHQvY3NzIj4mI3hhOwkuc3Qwe2ZpbGwtcnVsZTpldmVub2RkfSYjeGE7CS5zdDF7ZmlsbDojNjY5ZGY2O30mI3hhOwkuc3Qye2ZpbGw6I2FlY2JmYTt9JiN4YTsJLnN0M3tmaWxsOiM0Mjg1ZjQ7fSYjeGE7CTwvc3R5bGU+JiN4YTsJPGcgY2xhc3M9InN0MCI+JiN4YTsJCTxwYXRoIGNsYXNzPSJzdDEiIGQ9Ik03LjM3IDIuMDNsLTEuNzIuOTYgMS41MiAxLjUtLjAyIDEuNzMgMS4wMi4wMS4wMi0xLjczIDQuMjQgMi41Ni0uMDEgMS4wNyAxLjc3LjAzVjYuMTFMOS4wNSAzLjA0bC0uMjctLjk0eiIvPiYjeGE7CQk8cGF0aCBjbGFzcz0ic3QyIiBkPSJNNy4zNiAyLjAzbC0xLjQyLjM1LS4yOS42MUwuMzkgNS45Mi4zNiA3Ljk3IDIuMTQgOGwuMDItMS4wNyA0LjMxLTIuNDUtLjAyIDEuNzMuODYuMDEuMDYtNC4xOXoiLz4mI3hhOwkJPGcgY2xhc3M9InN0MSI+JiN4YTsJCQk8cGF0aCBkPSJNNy4zNiAyLjAzTDMuOTUgMCAyLjIxLjk1bDMuNDQgMi4wNCAxLjcyLS45NnptLjcxIDExLjc2bC0xLjcyLS4wMi0uMDIgMS43Mi44MiAyLjQ4IDEuNDItLjEyLjI5LS44NSA1LjI3LTIuOTMuMDMtMi4wOS0xLjc5LS4wMi0uMDIgMS4xLTQuMyAyLjQ1eiIvPiYjeGE7CQkJPHBhdGggZD0iTTcuMTUgMTcuOTdsLTMuNDYgMS45NGgtLjA1bC0xLjY2LS45OSAzLjQ5LTEuOTYgMS42OCAxLjAxeiIvPiYjeGE7CQk8L2c+JiN4YTsJCTxwYXRoIGNsYXNzPSJzdDMiIGQ9Ik0xMC44OC4wOWgtLjA1TDcuMzcgMi4wM2wxLjY4IDEuMDEgMy40OS0xLjk2ek0xMC42MiAyMGgtLjA1bC0zLjQyLTIuMDNoMCAwIDBsMS43Mi0uOTYgMy40NCAyLjA0eiIvPiYjeGE7CQk8cGF0aCBjbGFzcz0ic3QyIiBkPSJNLjMzIDEzLjg5di0yaDEuNzZsLS4wMSAxLjA0IDQuMjUgMi41Ni4wMi0xLjcyLjg2LjAxLS4wNiA0LjE4LTEuNjgtMXoiLz4mI3hhOwk8L2c+JiN4YTsJPGNpcmNsZSBjbGFzcz0ic3QyIiBjeD0iMTMuMzgiIGN5PSIxMC4wNCIgcj0iMS4xNCIvPiYjeGE7CTxjaXJjbGUgY2xhc3M9InN0MiIgY3g9IjEuMTQiIGN5PSI5Ljg4IiByPSIxLjE0Ii8+JiN4YTsJPGNpcmNsZSBjbGFzcz0ic3QyIiBjeD0iNy4zMiIgY3k9IjcuOTkiIHI9IjEuMTQiLz4mI3hhOwk8Y2lyY2xlIGNsYXNzPSJzdDIiIGN4PSI3LjIzIiBjeT0iMTIiIHI9IjEuMTQiLz4mI3hhOzwvc3ZnPg==;" vertex="1" parent="15">
                    <mxGeometry width="22" height="30" relative="1" as="geometry">
                        <mxPoint x="19" y="15" as="offset"/>
                    </mxGeometry>
                </mxCell>
                <mxCell id="17" value="" style="edgeStyle=orthogonalEdgeStyle;rounded=0;orthogonalLoop=1;jettySize=auto;html=1;" edge="1" parent="1" source="18" target="20">
                    <mxGeometry relative="1" as="geometry"/>
                </mxCell>
                <mxCell id="18" value="" style="fillColor=#ffffff;strokeColor=#dddddd;shadow=1;strokeWidth=1;rounded=1;absoluteArcSize=1;arcSize=2;" vertex="1" parent="1">
                    <mxGeometry x="640" y="580" width="130" height="60" as="geometry"/>
                </mxCell>
                <mxCell id="19" value="BigQuery" style="editableCssRules=.*;html=1;fontColor=#999999;shape=image;verticalLabelPosition=middle;verticalAlign=middle;labelPosition=right;align=left;spacingLeft=20;part=1;points=[];imageAspect=0;image=data:image/svg+xml,PHN2ZyB4bWxucz0iaHR0cDovL3d3dy53My5vcmcvMjAwMC9zdmciIHhtbG5zOnY9Imh0dHBzOi8vdmVjdGEuaW8vbmFubyIgd2lkdGg9IjIwLjAwMTA0NTIyNzA1MDc4IiBoZWlnaHQ9IjIwLjAwMTA0NTIyNzA1MDc4IiBmaWxsLXJ1bGU9ImV2ZW5vZGQiIHZpZXdCb3g9IjAgMCAyMC4wMDEwNDUyMjcwNTA3OCAyMC4wMDEwNDUyMjcwNTA3OCI+JiN4YTsJPHN0eWxlIHR5cGU9InRleHQvY3NzIj4mI3hhOwkuc3Qwe2ZpbGw6I2FlY2JmYTt9JiN4YTsJLnN0MXtmaWxsOiM2NjlkZjY7fSYjeGE7CS5zdDJ7ZmlsbDojNDI4NWY0O30mI3hhOwk8L3N0eWxlPiYjeGE7CTxwYXRoIGNsYXNzPSJzdDAiIGQ9Ik00LjczIDguODN2Mi42M2E0LjkxIDQuOTEgMCAwIDAgMS43MSAxLjc0VjguODN6Ii8+JiN4YTsJPHBhdGggY2xhc3M9InN0MSIgZD0iTTcuODkgNi40MXY3LjUzQTcuNjIgNy42MiAwIDAgMCA5IDE0YTggOCAwIDAgMCAxIDBWNi40MXoiLz4mI3hhOwk8cGF0aCBjbGFzcz0ic3QwIiBkPSJNMTEuNjQgOS44NnYzLjI5YTUgNSAwIDAgMCAxLjctMS44MlY5Ljg2eiIvPiYjeGE7CTxwYXRoIGNsYXNzPSJzdDIiIGQ9Ik0xNS43NCAxNC4zMmwtMS40MiAxLjQyYS40Mi40MiAwIDAgMCAwIC42bDMuNTQgMy41NGEuNDIuNDIgMCAwIDAgLjU5IDBsMS40My0xLjQzYS40Mi40MiAwIDAgMCAwLS41OWwtMy41NC0zLjU0YS40Mi40MiAwIDAgMC0uNiAwIi8+JiN4YTsJPHBhdGggY2xhc3M9InN0MSIgZD0iTTkgMGE5IDkgMCAxIDAgMCAxOEE5IDkgMCAxIDAgOSAwbTAgMTUuNjlhNi42OCA2LjY4IDAgMCAxIC4wMDctMTMuMzYgNi42OCA2LjY4IDAgMCAxIDQuNzI3IDExLjQwM0E2LjY4IDYuNjggMCAwIDEgOSAxNS42OSIvPiYjeGE7PC9zdmc+;" vertex="1" parent="18">
                    <mxGeometry width="30" height="30" relative="1" as="geometry">
                        <mxPoint x="15" y="15" as="offset"/>
                    </mxGeometry>
                </mxCell>
                <mxCell id="20" value="Looker" style="sketch=0;html=1;verticalAlign=top;labelPosition=center;verticalLabelPosition=bottom;align=center;spacingTop=-6;fontSize=11;fontStyle=1;fontColor=#999999;shape=image;aspect=fixed;imageAspect=0;image=data:image/svg+xml,PHN2ZyB4bWxucz0iaHR0cDovL3d3dy53My5vcmcvMjAwMC9zdmciIGlkPSJzdmc4OTgwMSIgdmVyc2lvbj0iMS4xIiB2aWV3Qm94PSIwIDAgMjA4LjA1NjU1IDMzNC42MTMxNiIgaGVpZ2h0PSIzMzQuNjEzMTZtbSIgd2lkdGg9IjIwOC4wNTY1NW1tIj4mI3hhOyAgJiN4YTsgIDxkZWZzIGlkPSJkZWZzODk3OTgiLz4mI3hhOyAgPGcgdHJhbnNmb3JtPSJ0cmFuc2xhdGUoLTQuMjQ2MjUyNCwxNS42NzE5MTEpIiBpZD0ibGF5ZXIxIj4mI3hhOyAgICA8cGF0aCBpZD0icGF0aDkxODAyIiB0cmFuc2Zvcm09InNjYWxlKDAuMjY0NTgzMzMpIiBkPSJtIDQwOS4yMjI2Niw0MTkuMDk5NjEgYyAtMzYuNjA4MTEsMCAtNzIuMDc2NjcsNS4wNzUzIC0xMDUuNzUzOTEsMTQuNTMxMjUgbCA0OS4wMzUxNiwxMjAuMDQxMDIgYyAxOC4yNjE3MiwtMy45Mzg5OSAzNy4yMjE5NiwtNi4wNjgzNiA1Ni43MTg3NSwtNi4wNjgzNiAxNDYuOTM1MTQsMCAyNjQuNjc3NzMsMTE3LjczNDc3IDI2NC42Nzc3MywyNjQuNjY5OTIgMCwxNDYuOTM1MTQgLTExNy43NDI1OSwyNjQuNjY5OTYgLTI2NC42Nzc3MywyNjQuNjY5OTYgLTE0Ni45MzUxNiwwIC0yNjQuNjY5OTEsLTExNy43MzQ4MiAtMjY0LjY2OTkzLC0yNjQuNjY5OTYgMCwtOTkuMTg3NjMgNTMuNjg5ODMsLTE4NS4wMDU5NiAxMzMuNzU1ODYsLTIzMC4zNDc2NiBMIDIyOS42MjY5NSw0NjIuNzUgQyAxMDMuMDI0Nyw1MjguMjI0NzQgMTYuMDQ4ODI3LDY2MC41MDUyMyAxNi4wNDg4MjgsODEyLjI3MzQ0IGMgMi4zZS01LDIxNi4zODM3NiAxNzYuNzkwMDYyLDM5My4xNzM4NiAzOTMuMTczODMyLDM5My4xNzM4NiAyMTYuMzgzNzMsMCAzOTMuMTgxNjQsLTE3Ni43OTAxIDM5My4xODE2NCwtMzkzLjE3Mzg2IDNlLTUsLTIxNi4zODM3OCAtMTc2Ljc5Nzg3LC0zOTMuMTczODMgLTM5My4xODE2NCwtMzkzLjE3MzgzIHoiIHN0eWxlPSJjb2xvcjojMDAwMDAwO29wYWNpdHk6MTtmaWxsOiM1OTg2ZjI7ZmlsbC1vcGFjaXR5OjE7c3Ryb2tlLXdpZHRoOjMuNzc5NTM7c3Ryb2tlLWxpbmVqb2luOnJvdW5kOy1pbmtzY2FwZS1zdHJva2U6bm9uZSIvPiYjeGE7ICAgIDxwYXRoIGQ9Im0gMTg5Ljk0MzM2LDg2LjI1IGMgLTk1LjEzMDMzMSwwIC0xNzMuMTc5Njg4LDc4LjA1NTIyIC0xNzMuMTc5Njg4LDE3My4xODU1NSAtNmUtNiw5NS4xMzAzMyA3OC4wNDkzNTMsMTczLjE3OTY4IDE3My4xNzk2ODgsMTczLjE3OTY4IDkuMDE2MTgsMCAxNy44NzU4LC0wLjcwODMyIDI2LjUzMzIsLTIuMDU4NTkgbCAtMzQuODI4MTIsLTg1LjI2NTYyIGMgLTQ0LjE1NzMsLTQuMDg2NjkgLTc3Ljk1NTA4LC00MC41MDcwNSAtNzcuOTU1MDgsLTg1Ljg1NTQ3IDAsLTQ4LjE1MDM5IDM4LjA5OTYyLC04Ni4yNTU4NiA4Ni4yNSwtODYuMjU1ODYgMTMuMTU5NzcsMCAyNS41NTg4OCwyLjg2MjQ2IDM2LjY0NDUzLDcuOTgyNDIgbCA2NC41NTQ2OSwtNjEuOTE5OTIgQyAyNjIuNjA4MzcsOTguNTMzOTEgMjI3LjYyOTI5LDg2LjI1IDE4OS45NDMzNiw4Ni4yNSBaIG0gMTM4Ljg4ODY3LDcwLjE2MjExIC02My40Mjc3Myw2MC44MzU5NCBjIDYuODc2MzgsMTIuNDI2NzggMTAuNzg5MDYsMjYuNzg4MTUgMTAuNzg5MDYsNDIuMTg3NSAwLDIxLjc2NzEyIC03LjgwNDE1LDQxLjQ2NTQgLTIwLjc4NTE2LDU2LjUzMzIgbCAzNC41MjM0NCw4NC41MTk1MyBjIDQ0LjE3Mzg3LC0zMS40ODc1MSA3My4xOTE0MSwtODMuMDc4OTIgNzMuMTkxNDEsLTE0MS4wNTI3MyAwLC0zOC40ODM1NSAtMTIuNzgyLC03NC4xNjUzMiAtMzQuMjkxMDIsLTEwMy4wMjM0NCB6IiB0cmFuc2Zvcm09InNjYWxlKDAuMjY0NTgzMzMpIiBzdHlsZT0iY29sb3I6IzAwMDAwMDtvcGFjaXR5OjE7ZmlsbDojNmY5OGY0O2ZpbGwtb3BhY2l0eToxO3N0cm9rZS13aWR0aDozLjc3OTUzO3N0cm9rZS1saW5lam9pbjpyb3VuZDstaW5rc2NhcGUtc3Ryb2tlOm5vbmUiIGlkPSJwYXRoOTE3OTgiLz4mI3hhOyAgICA8cGF0aCBpZD0icGF0aDg5OTI4IiB0cmFuc2Zvcm09InNjYWxlKDAuMjY0NTgzMzMpIiBkPSJtIDQwNi4xMzY3MiwtNTkuMjMyNDIyIGMgLTU4LjgxNTQ3LDhlLTYgLTEwNy4xMDM1Miw0OC4yODgwNDUgLTEwNy4xMDM1MiwxMDcuMTAzNTE2IDAsMTguNDk0NDUxIDQuNzgxMDEsMzUuOTQ1MDE3IDEzLjE1NjI1LDUxLjE4MzU5NCBsIDQ0LjMxMjUsLTQyLjUwMzkwNyBjIC0wLjQ3NTY3LC0yLjgyMDc3NSAtMC43NzUzOSwtNS43MDc1NjQgLTAuNzc1MzksLTguNjc5Njg3IDAsLTI4LjE3NjM4IDIyLjIzMzc4LC01MC40MTAxNTI1IDUwLjQxMDE2LC01MC40MTAxNTY1IDI4LjE3NjM4LC00ZS02IDUwLjQxMDE1LDIyLjIzMzc3MDUgNTAuNDEwMTYsNTAuNDEwMTU2NSAwLDI4LjE3NjM4MSAtMjIuMjMzNzgsNTAuNDEyMTEzIC01MC40MTAxNiw1MC40MTIxMDkgLTUuMDY4NjksLTEwZS03IC05LjkzNDE3LC0wLjc0NTYzMSAtMTQuNTIzNDQsLTIuMDg5ODQ0IGwgLTQzLjM2MTMzLDQxLjU5MTgwMSBjIDE2LjczMjIzLDEwLjg0Nzk1IDM2LjYxMTIzLDE3LjE4OTQ1IDU3Ljg4NDc3LDE3LjE4OTQ1IDU4LjgxNTQ5LDEwZS02IDEwNy4xMDM1MSwtNDguMjg4MDQgMTA3LjEwMzUxLC0xMDcuMTAzNTE2IDAsLTU4LjgxNTQ4MyAtNDguMjg4MDIsLTEwNy4xMDM1MjMgLTEwNy4xMDM1MSwtMTA3LjEwMzUxNiB6IiBzdHlsZT0iY29sb3I6IzAwMDAwMDtvcGFjaXR5OjE7ZmlsbDojZDZlM2ZiO2ZpbGwtb3BhY2l0eToxO3N0cm9rZS13aWR0aDozLjc3OTUzO3N0cm9rZS1saW5lam9pbjpyb3VuZDstaW5rc2NhcGUtc3Ryb2tlOm5vbmUiLz4mI3hhOyAgPC9nPiYjeGE7PC9zdmc+;" vertex="1" parent="1">
                    <mxGeometry x="692" y="440" width="26" height="42" as="geometry"/>
                </mxCell>
            </root>
        </mxGraphModel>
    </diagram>
</mxfile>